<svg width="238" height="127" viewBox="0 0 238 127" fill="none" xmlns="http://www.w3.org/2000/svg">
<path d="M114.289 25.3472C114.213 25.3472 114.105 25.3303 114.105 25.2542C114.105 25.2365 114.852 23.6867 116.345 20.6049C117.652 17.9061 118.401 16.3754 118.59 16.0129C118.62 15.9565 118.651 15.8937 118.711 15.8713C118.773 15.8478 118.872 15.8361 119.008 15.8361C119.211 15.8361 119.335 15.8671 119.379 15.9291C119.406 15.9645 120.165 17.5231 121.658 20.6049C123.017 23.4096 123.761 24.9454 123.89 25.2122C123.904 25.2402 123.916 25.2616 123.9 25.2883C123.877 25.3276 123.82 25.3472 123.774 25.3472H114.289ZM120.214 20.7776L119.033 18.3516C118.85 17.9771 118.317 17.9767 118.134 18.3509L115.661 23.4087C115.499 23.7401 115.74 24.1268 116.109 24.1283L118.571 24.1384H121.344C121.62 24.1384 121.751 23.9358 121.631 23.687C121.38 23.1668 120.908 22.197 120.214 20.7776Z" fill="#13B1E3"/>
<path d="M128.129 16.2807C127.81 16.2807 127.642 16.2615 127.623 16.223C127.614 16.2038 127.609 16.1653 127.609 16.1076C127.609 16.0012 127.62 15.9101 127.642 15.8344C127.686 15.6812 127.843 15.6173 128.002 15.6173C128.386 15.6365 129.023 15.6461 129.913 15.6461C130.231 15.6461 130.526 15.6461 130.798 15.6461C131.07 15.6461 131.28 15.6413 131.43 15.6317C131.617 15.6197 131.912 15.5697 131.935 15.7553C131.936 15.7619 131.936 15.7688 131.936 15.7759C131.936 15.7951 131.927 15.8624 131.908 15.9778C131.868 16.1163 131.829 16.2064 131.789 16.2483C131.776 16.2616 131.758 16.2663 131.739 16.2663C131.721 16.2663 131.697 16.2663 131.669 16.2663C131.641 16.2663 131.608 16.2663 131.571 16.2663C131.533 16.2663 131.491 16.2711 131.444 16.2807C131.361 16.2977 131.275 16.2817 131.19 16.2844C130.898 16.2939 130.706 16.3071 130.615 16.324C130.512 16.3432 130.428 16.3961 130.363 16.4826C130.334 16.5211 130.185 17.1124 129.913 18.2566C129.847 18.5065 129.777 18.7854 129.702 19.0931C129.627 19.4007 129.571 19.6267 129.534 19.7709C129.496 19.9146 129.551 19.9989 129.699 20.0031C129.999 20.0118 130.604 20.0161 131.515 20.0161H133.514C133.536 20.0161 133.556 20.0017 133.563 19.9806C133.565 19.9754 133.566 19.9705 133.567 19.9652C133.579 19.8879 133.724 19.2991 134.001 18.1989C134.263 17.0931 134.394 16.5018 134.394 16.4249C134.394 16.348 134.128 16.2999 133.594 16.2807C133.378 16.2807 133.238 16.2711 133.172 16.2518C133.107 16.2326 133.074 16.1893 133.074 16.122C133.074 16.1028 133.083 16.0451 133.102 15.949C133.139 15.7855 133.168 15.6942 133.186 15.6749C133.205 15.6557 133.28 15.6413 133.411 15.6317C133.458 15.6317 133.655 15.6365 134.001 15.6461C134.348 15.6557 134.788 15.6605 135.322 15.6605C135.902 15.6605 136.347 15.6557 136.656 15.6461C136.965 15.6365 137.134 15.6317 137.162 15.6317C137.321 15.6317 137.401 15.6798 137.401 15.7759C137.401 16.017 137.352 16.1752 137.255 16.2504C137.241 16.2617 137.223 16.2663 137.204 16.2663C137.185 16.2663 137.162 16.2663 137.134 16.2663C137.106 16.2663 137.073 16.2663 137.036 16.2663C136.998 16.2663 136.956 16.2711 136.909 16.2807C136.826 16.2977 136.74 16.2817 136.655 16.2844C136.362 16.2939 136.171 16.3071 136.08 16.324C135.977 16.3432 135.893 16.3961 135.827 16.4826C135.799 16.5307 135.462 17.8912 134.816 20.5641C134.233 22.976 133.909 24.3153 133.844 24.5823C133.836 24.6151 133.83 24.6632 133.841 24.695C133.859 24.7439 133.914 24.7419 133.965 24.7508C134.085 24.7715 134.312 24.7894 134.647 24.8043H134.928C135.025 24.8043 135.167 24.8366 135.167 24.9341C135.167 24.9438 135.153 25.0303 135.125 25.1937C135.115 25.2277 135.104 25.2593 135.092 25.2883C135.042 25.4134 134.909 25.4678 134.774 25.4678C134.427 25.4485 133.8 25.4389 132.891 25.4389C132.573 25.4389 132.278 25.4389 132.006 25.4389C131.735 25.4389 131.519 25.4389 131.36 25.4389C131.164 25.4389 130.839 25.5281 130.826 25.3321C130.826 25.3293 130.826 25.3265 130.826 25.3235C130.826 25.2755 130.84 25.2082 130.868 25.1216C130.915 24.939 130.962 24.838 131.009 24.8188C131.046 24.8091 131.117 24.8043 131.22 24.8043H131.304C131.557 24.8043 131.838 24.7899 132.147 24.7611C132.203 24.7515 132.24 24.7467 132.259 24.7467C132.278 24.7467 132.306 24.7226 132.343 24.6745C132.381 24.6265 132.409 24.5832 132.428 24.5447C132.446 24.5063 132.475 24.4197 132.512 24.2851C132.549 24.1505 132.582 24.0159 132.61 23.8813C132.638 23.7467 132.69 23.54 132.765 23.2611C132.83 22.9919 132.882 22.7756 132.919 22.6121C133.228 21.343 133.383 20.7036 133.383 20.6939C133.383 20.6843 132.704 20.6795 131.346 20.6795H131.31C130.137 20.6795 129.117 21.4851 128.845 22.6266C128.527 23.915 128.368 24.5832 128.368 24.6313C128.368 24.6986 128.405 24.7418 128.48 24.7611C128.555 24.7803 128.789 24.7947 129.183 24.8043H129.463C129.56 24.8043 129.702 24.8366 129.702 24.9341C129.702 24.9438 129.688 25.0303 129.66 25.1937C129.65 25.2277 129.639 25.2593 129.628 25.2883C129.578 25.4134 129.444 25.4678 129.309 25.4678C128.962 25.4485 128.335 25.4389 127.426 25.4389C127.108 25.4389 126.813 25.4389 126.541 25.4389C126.27 25.4389 126.054 25.4389 125.895 25.4389C125.699 25.4389 125.374 25.5281 125.362 25.3321C125.361 25.3293 125.361 25.3265 125.361 25.3235C125.361 25.3043 125.375 25.237 125.403 25.1216C125.45 24.939 125.497 24.838 125.544 24.8188C125.581 24.8091 125.652 24.8043 125.755 24.8043H125.839C126.092 24.8043 126.373 24.7899 126.682 24.7611C126.813 24.7322 126.902 24.6745 126.949 24.588C126.977 24.5495 127.314 23.2131 127.96 20.5786C128.607 17.9441 128.93 16.5547 128.93 16.4105C128.93 16.3432 128.663 16.2999 128.129 16.2807Z" fill="#13B1E3"/>
<path d="M137.078 18.6422C137.078 18.4164 137.381 18.3765 137.607 18.3765H145.354C145.584 18.3765 145.903 18.4126 145.903 18.6422C145.903 18.8578 145.604 18.8949 145.388 18.8956L141.504 18.9078H137.658C137.414 18.9078 137.078 18.8862 137.078 18.6422ZM137.078 21.2192C137.078 20.9752 137.414 20.9535 137.658 20.9535H145.381C145.6 20.9535 145.903 21.0006 145.903 21.2192C145.903 21.4513 145.584 21.4849 145.352 21.4849H137.607C137.381 21.4849 137.078 21.4449 137.078 21.2192Z" fill="#13B1E3"/>
<path d="M193.255 15.7627C193.264 15.7627 193.582 15.7406 194.209 15.6963C194.55 15.6723 194.8 15.6534 194.961 15.6398C195.103 15.6278 195.335 15.5802 195.335 15.7229C195.335 15.7849 195.013 17.1221 194.368 19.7345C193.723 22.347 193.392 23.6798 193.374 23.7329C193.357 23.786 193.352 23.8524 193.361 23.9321C193.361 24.3041 193.485 24.4901 193.732 24.4901C193.812 24.4812 193.9 24.4413 193.997 24.3705C194.183 24.1934 194.364 23.7683 194.54 23.0953C194.561 23.0251 194.581 22.9681 194.599 22.9244C194.633 22.8422 194.716 22.803 194.805 22.803H194.858H194.911C195.044 22.803 195.11 22.8385 195.11 22.9093C195.11 22.9536 195.097 23.0244 195.07 23.1218C194.956 23.5646 194.823 23.9233 194.673 24.1978C194.523 24.4723 194.399 24.6495 194.302 24.7292C194.275 24.7515 194.245 24.7731 194.214 24.7941C194.037 24.9122 193.826 24.9683 193.613 24.9683C193.313 24.9683 193.061 24.9018 192.858 24.769C192.654 24.6362 192.522 24.4989 192.46 24.3572L192.395 24.1945C192.386 24.1704 192.374 24.1478 192.351 24.1582C192.339 24.1632 192.323 24.1758 192.314 24.1847C192.301 24.1979 192.288 24.2112 192.275 24.2244C191.753 24.7203 191.223 24.9683 190.685 24.9683C190.199 24.9683 189.77 24.7911 189.399 24.4369C189.028 24.0827 188.843 23.5203 188.843 22.7499C188.843 22.3248 188.931 21.8909 189.108 21.4481C189.284 21.0053 189.496 20.6245 189.744 20.3057C190.159 19.8009 190.574 19.4511 190.989 19.2563C191.404 19.0615 191.78 18.9641 192.116 18.9641C192.61 18.9641 192.981 19.15 193.229 19.522C193.269 19.571 193.303 19.5441 193.318 19.4822C193.363 19.2981 193.475 18.8464 193.653 18.1272C193.798 17.5401 193.9 17.1277 193.961 16.8901C194.001 16.7324 194.08 16.5044 193.931 16.4402C193.869 16.4136 193.697 16.3915 193.414 16.3738H193.27C193.184 16.3738 193.056 16.3536 193.056 16.2675C193.056 16.2498 193.065 16.1657 193.083 16.0151C193.127 15.8468 193.184 15.7627 193.255 15.7627ZM192.694 22.0181C192.94 21.027 193.097 19.4556 192.076 19.4556C191.767 19.4556 191.471 19.5928 191.188 19.8674C190.905 20.1419 190.685 20.5005 190.526 20.9433C190.269 21.6429 190.088 22.3691 189.982 23.1218C189.982 23.1484 189.982 23.1971 189.982 23.268C189.982 23.3744 189.967 23.4814 189.974 23.5877C189.993 23.9004 190.071 24.1215 190.208 24.2509C190.367 24.4015 190.556 24.4812 190.777 24.4901C191.254 24.4901 191.745 24.1712 192.248 23.5336C192.318 23.4371 192.369 23.328 192.398 23.2123L192.694 22.0181Z" fill="#13B1E3"/>
<path d="M195.826 19.03C195.658 19.03 195.574 18.9946 195.574 18.9238C195.574 18.8795 195.645 18.6315 195.786 18.1799C195.928 17.7282 196.078 17.281 196.237 16.8382L196.462 16.1873C196.529 15.9467 196.775 15.842 197.024 15.842H202.835H204.028C204.311 15.842 204.478 15.8464 204.531 15.8552C204.584 15.8641 204.615 15.9039 204.624 15.9748C204.624 16.0279 204.549 16.5327 204.399 17.4891C204.315 18.0265 204.251 18.4143 204.209 18.6525C204.177 18.8285 204.074 19.03 203.895 19.03C203.816 19.03 203.763 19.03 203.736 19.03C203.71 19.03 203.683 19.0079 203.657 18.9636C203.64 18.9376 203.631 18.9072 203.633 18.8761C203.642 18.7875 203.667 18.6041 203.71 18.326C203.763 17.9806 203.789 17.7105 203.789 17.5157C203.789 17.2057 203.732 16.9711 203.617 16.8117C203.502 16.6523 203.259 16.5416 202.888 16.4796C202.844 16.4707 202.588 16.4619 202.12 16.453C201.714 16.453 201.457 16.4574 201.351 16.4663C201.245 16.4751 201.166 16.5106 201.113 16.5726C201.104 16.5814 200.79 17.8168 200.172 20.2787C199.554 22.7406 199.245 23.9937 199.245 24.0379C199.245 24.1442 199.633 24.2062 200.411 24.2239C200.693 24.2239 200.874 24.2283 200.954 24.2372C201.033 24.2461 201.073 24.2859 201.073 24.3568C201.073 24.401 201.06 24.463 201.033 24.5427C200.998 24.7021 200.958 24.7951 200.914 24.8217C200.897 24.8304 200.877 24.835 200.858 24.835C200.839 24.835 200.818 24.835 200.795 24.835C200.751 24.835 200.521 24.8305 200.106 24.8217C199.691 24.8128 199.094 24.8084 198.317 24.8084C197.178 24.8084 196.453 24.8172 196.144 24.835H196.091C195.998 24.835 195.866 24.809 195.866 24.7154C195.866 24.6922 195.872 24.6283 195.886 24.5238C195.89 24.4922 195.9 24.4513 195.911 24.4213C195.963 24.2771 196.111 24.2239 196.265 24.2239H196.396H196.541C197.235 24.2239 197.651 24.1856 197.792 24.1089C197.798 24.106 197.803 24.101 197.808 24.0975C197.82 24.0896 197.833 24.0877 197.843 24.0782C197.882 24.0413 197.921 23.9571 197.959 23.8254C198.003 23.6749 198.18 22.9797 198.489 21.7399C198.639 21.1377 198.763 20.6462 198.86 20.2654C199.479 17.8301 199.788 16.5858 199.788 16.5327C199.788 16.4884 199.66 16.4663 199.404 16.4663H198.993C198.401 16.4663 198.012 16.4928 197.827 16.546C197.429 16.6345 197.12 16.8161 196.899 17.0906C196.678 17.3651 196.44 17.8788 196.184 18.6315C196.122 18.8263 196.078 18.9415 196.051 18.9769C196.025 19.0123 195.963 19.03 195.866 19.03H195.826Z" fill="#13B1E3"/>
<path d="M171.331 21.6357C171.331 20.6173 171.627 19.6387 172.219 18.7C172.811 17.7613 173.557 17.0174 174.458 16.4684C175.359 15.9193 176.26 15.6403 177.161 15.6315C177.956 15.6315 178.588 15.8573 179.056 16.3089C179.135 16.3975 179.202 16.4728 179.255 16.5348C179.304 16.5927 179.338 16.6352 179.357 16.6622C179.36 16.6658 179.361 16.6697 179.363 16.6738C179.369 16.6939 179.388 16.7035 179.405 16.6908C179.457 16.6514 179.566 16.5418 179.732 16.3621C179.794 16.3089 179.86 16.247 179.931 16.1761C180.001 16.1053 180.072 16.0344 180.143 15.9636C180.185 15.921 180.218 15.8864 180.241 15.8598C180.265 15.8327 180.288 15.8046 180.313 15.7791L180.418 15.6745C180.454 15.6385 180.502 15.6182 180.553 15.6182C180.677 15.6182 180.739 15.6492 180.739 15.7112C180.739 15.7466 180.597 16.3532 180.315 17.531C180.07 18.4785 179.919 19.0639 179.863 19.2874C179.846 19.3558 179.838 19.4481 179.771 19.4704C179.745 19.4793 179.665 19.4882 179.533 19.497H179.467C179.374 19.497 179.241 19.4711 179.241 19.3775C179.241 19.3686 179.246 19.3376 179.255 19.2845C179.264 19.2313 179.272 19.1428 179.281 19.0188C179.29 18.8948 179.294 18.7531 179.294 18.5937C179.294 17.965 179.153 17.4159 178.87 16.9466C178.588 16.4772 178.106 16.2381 177.426 16.2292C177.197 16.2292 176.949 16.2602 176.684 16.3222C176.419 16.3842 176.101 16.4905 175.73 16.641C175.359 16.7916 174.993 17.0395 174.63 17.3849C174.268 17.7303 173.946 18.1421 173.663 18.6203C173.38 19.1251 173.155 19.714 172.987 20.387C172.82 21.0601 172.736 21.6091 172.736 22.0342C172.736 23.0437 173.071 23.7699 173.743 24.2127C174.167 24.5138 174.688 24.6643 175.306 24.6643C176.11 24.6643 176.826 24.3632 177.453 23.7611C178.08 23.1589 178.495 22.5035 178.698 21.7951C178.734 21.68 178.76 21.6135 178.778 21.5958C178.795 21.5781 178.866 21.5693 178.99 21.5693C179.166 21.5693 179.255 21.6091 179.255 21.6888C179.255 21.7331 179.25 21.7729 179.241 21.8084C178.985 22.7559 178.438 23.5707 177.598 24.2526C176.759 24.9344 175.858 25.2754 174.895 25.2754C173.897 25.2754 173.054 24.9433 172.365 24.2791C171.676 23.6149 171.331 22.7338 171.331 21.6357Z" fill="#13B1E3"/>
<path d="M180.363 24.2986C180.355 24.281 180.361 24.2713 180.366 24.2527C180.37 24.2389 180.373 24.2232 180.377 24.2054C180.383 24.1741 180.399 24.1052 180.424 23.9988C180.449 23.8923 180.48 23.7953 180.517 23.7076C180.555 23.62 180.602 23.5167 180.658 23.3977C180.714 23.2788 180.777 23.1849 180.845 23.116C180.914 23.0471 180.995 22.9782 181.089 22.9094C181.183 22.8405 181.286 22.8123 181.398 22.8248C181.818 22.8248 182.103 22.986 182.251 23.3084C182.276 23.3623 182.347 23.3811 182.391 23.3414C182.778 22.997 183.147 22.8248 183.496 22.8248C183.902 22.8248 184.221 22.972 184.452 23.2662C184.683 23.5605 184.799 23.9174 184.799 24.3369C184.799 25.0131 184.561 25.636 184.087 26.2058C183.612 26.7755 183.075 27.0636 182.475 27.0698C182.338 27.0698 182.216 27.051 182.11 27.0135C182.041 26.9822 181.969 26.9352 181.895 26.8726C181.82 26.81 181.76 26.7568 181.717 26.7129C181.681 26.6723 181.637 26.6813 181.624 26.7335C181.592 26.8561 181.532 27.0966 181.445 27.4549C181.314 27.9933 181.248 28.2657 181.248 28.2719C181.248 28.3095 181.273 28.3314 181.323 28.3377C181.373 28.3439 181.489 28.3533 181.67 28.3658H181.801C181.866 28.3658 181.96 28.3853 181.96 28.4504C181.96 28.4629 181.951 28.5192 181.932 28.6194C181.913 28.6945 181.895 28.7415 181.876 28.7603C181.857 28.7791 181.816 28.7916 181.754 28.7979C181.741 28.7979 181.707 28.7979 181.651 28.7979C181.595 28.7979 181.489 28.7947 181.332 28.7885C181.176 28.7822 180.983 28.7791 180.752 28.7791C180.314 28.7791 180.037 28.7853 179.918 28.7979C179.87 28.7979 179.821 28.7809 179.795 28.7406C179.783 28.7228 179.777 28.7074 179.777 28.6945C179.782 28.6286 179.791 28.5716 179.805 28.5238C179.838 28.4065 179.965 28.3658 180.086 28.3658C180.299 28.3596 180.421 28.322 180.452 28.2531C180.471 28.2156 180.661 27.4674 181.023 26.0086C181.386 24.5498 181.576 23.7765 181.595 23.6889C181.601 23.6576 181.604 23.6137 181.604 23.5574C181.604 23.3007 181.526 23.1723 181.37 23.1723C181.233 23.1723 181.117 23.26 181.023 23.4353C180.93 23.6106 180.858 23.8016 180.808 24.0082C180.788 24.0887 180.771 24.155 180.755 24.207C180.726 24.3044 180.647 24.3651 180.546 24.3651H180.489C180.441 24.3651 180.382 24.3422 180.363 24.2986ZM182.054 24.9849C181.886 25.6689 181.786 26.7172 182.49 26.7316C182.494 26.7317 182.499 26.7317 182.503 26.7317C182.691 26.7317 182.872 26.6597 183.047 26.5157C183.222 26.3717 183.365 26.1901 183.478 25.971C183.59 25.7581 183.703 25.42 183.815 24.9567C183.927 24.4934 183.987 24.1491 183.993 23.9237V23.8673C183.993 23.404 183.802 23.1723 183.421 23.1723C183.353 23.1723 183.284 23.1817 183.215 23.2005C183.147 23.2193 183.078 23.2475 183.009 23.285C182.941 23.3226 182.878 23.3633 182.822 23.4071C182.766 23.4509 182.713 23.4979 182.663 23.548C182.613 23.5981 182.566 23.645 182.522 23.6889C182.478 23.7327 182.444 23.7765 182.419 23.8203C182.398 23.8578 182.376 23.8861 182.355 23.9053C182.348 23.9115 182.341 23.9181 182.336 23.9255C182.323 23.9426 182.315 23.9632 182.31 23.9841C182.306 24.0061 182.298 24.0392 182.288 24.0833C182.269 24.1647 182.235 24.3024 182.185 24.4965C182.135 24.6906 182.091 24.8534 182.054 24.9849Z" fill="#13B1E3"/>
<path d="M146.84 36.5561C146.688 36.8929 146.51 37.316 146.879 37.316H146.906C147.153 37.316 147.401 37.0504 147.648 36.519C147.895 35.9877 148.125 35.2615 148.337 34.3405C148.549 33.4195 148.748 32.4941 148.933 31.5642C149.119 30.6344 149.304 29.6292 149.49 28.5488C149.516 28.3629 149.538 28.2256 149.556 28.137C150.192 24.3734 150.881 20.8842 151.623 17.6696C152.365 14.4549 152.904 12.365 153.24 11.3997C153.293 11.2403 153.337 11.1074 153.372 11.0012C153.407 10.8949 153.482 10.7001 153.597 10.4167C153.712 10.1333 153.831 9.88535 153.955 9.67282C154.079 9.46028 154.229 9.24331 154.406 9.02192C154.582 8.80053 154.777 8.62341 154.989 8.49057C155.201 8.35774 155.426 8.29575 155.664 8.3046C156.159 8.3046 156.53 8.45958 156.777 8.76953C157.025 9.07948 157.166 9.43371 157.201 9.83222C157.201 10.0536 157.148 10.2307 157.042 10.3636C156.936 10.4964 156.835 10.5805 156.738 10.616C156.64 10.6514 156.543 10.6647 156.446 10.6558C156.261 10.6558 156.093 10.5894 155.943 10.4566C155.792 10.3237 155.717 10.1422 155.717 9.91192C155.717 9.50623 155.931 9.25784 156.357 9.16674C156.385 9.16067 156.399 9.1271 156.382 9.10383C156.38 9.10236 156.379 9.10097 156.378 9.09967C156.352 9.07354 156.317 9.0432 156.274 9.00864C156.23 8.97321 156.194 8.94665 156.168 8.92893C156.035 8.84038 155.89 8.7961 155.731 8.7961C155.607 8.7961 155.492 8.84923 155.386 8.9555C155.28 9.06177 155.139 9.30973 154.962 9.69938C154.785 10.089 154.613 10.6027 154.445 11.2403C154.277 11.8779 154.07 12.7768 153.823 13.9369C153.575 15.097 153.328 16.4607 153.081 18.0282C152.559 20.9949 152.016 23.7977 151.451 26.4367C150.885 29.0758 150.444 30.9886 150.126 32.1753C149.808 33.3619 149.565 34.2121 149.397 34.7257C148.717 36.7891 147.878 37.8208 146.879 37.8208C146.526 37.8208 146.204 37.6835 145.912 37.409C145.621 37.1345 145.457 36.7581 145.422 36.2799C145.422 35.97 145.506 35.7574 145.674 35.6423C145.841 35.5272 146.009 35.4696 146.177 35.4696C146.363 35.4696 146.53 35.536 146.681 35.6689C146.831 35.8017 146.906 35.9832 146.906 36.2135C146.906 36.344 146.884 36.4582 146.84 36.5561Z" fill="#13B1E3"/>
<path d="M151.914 31.261C151.746 31.261 151.662 31.2256 151.662 31.1547C151.662 31.1104 151.733 30.8625 151.874 30.4108C152.015 29.9592 152.166 29.512 152.325 29.0692L152.55 28.4183C152.617 28.1777 152.862 28.0729 153.112 28.0729H158.923H160.116C160.398 28.0729 160.566 28.0773 160.619 28.0862C160.672 28.095 160.703 28.1349 160.712 28.2057C160.712 28.2589 160.637 28.7637 160.487 29.7201C160.402 30.2574 160.339 30.6452 160.296 30.8835C160.265 31.0595 160.162 31.261 159.983 31.261C159.904 31.261 159.851 31.261 159.824 31.261C159.798 31.261 159.771 31.2388 159.745 31.1946C159.728 31.1686 159.718 31.1381 159.721 31.107C159.73 31.0184 159.755 30.8351 159.798 30.5569C159.851 30.2116 159.877 29.9415 159.877 29.7466C159.877 29.4367 159.82 29.202 159.705 29.0426C159.59 28.8832 159.347 28.7725 158.976 28.7105C158.932 28.7017 158.676 28.6928 158.208 28.684C157.801 28.684 157.545 28.6884 157.439 28.6972C157.333 28.7061 157.254 28.7415 157.201 28.8035C157.192 28.8124 156.878 30.0477 156.26 32.5096C155.642 34.9715 155.332 36.2246 155.332 36.2689C155.332 36.3752 155.721 36.4372 156.498 36.4549C156.781 36.4549 156.962 36.4593 157.042 36.4682C157.121 36.477 157.161 36.5169 157.161 36.5877C157.161 36.632 157.148 36.694 157.121 36.7737C157.086 36.9331 157.046 37.0261 157.002 37.0526C156.985 37.0614 156.965 37.0659 156.946 37.0659C156.927 37.0659 156.906 37.0659 156.883 37.0659C156.839 37.0659 156.609 37.0615 156.194 37.0526C155.779 37.0438 155.182 37.0394 154.405 37.0394C153.265 37.0394 152.541 37.0482 152.232 37.0659H152.179C152.086 37.0659 151.954 37.04 151.954 36.9464C151.954 36.9231 151.96 36.8593 151.974 36.7548C151.978 36.7232 151.988 36.6823 151.999 36.6523C152.051 36.5081 152.199 36.4549 152.352 36.4549H152.484H152.629C153.322 36.4549 153.739 36.4165 153.88 36.3399C153.886 36.3369 153.891 36.332 153.896 36.3284C153.908 36.3205 153.921 36.3186 153.931 36.3091C153.97 36.2723 154.009 36.188 154.047 36.0564C154.091 35.9058 154.268 35.2106 154.577 33.9708C154.727 33.3686 154.851 32.8772 154.948 32.4964C155.567 30.061 155.876 28.8168 155.876 28.7637C155.876 28.7194 155.748 28.6972 155.491 28.6972H155.081C154.489 28.6972 154.1 28.7238 153.915 28.7769C153.517 28.8655 153.208 29.047 152.987 29.3216C152.766 29.5961 152.528 30.1097 152.272 30.8625C152.21 31.0573 152.166 31.1724 152.139 31.2078C152.113 31.2433 152.051 31.261 151.954 31.261H151.914Z" fill="#13B1E3"/>
<path d="M161.117 33.7603C161.117 33.6974 161.054 33.6541 160.995 33.6768C160.908 33.7081 160.783 33.7394 160.621 33.7707C160.458 33.802 160.277 33.8239 160.077 33.8364C159.979 33.8364 159.899 33.7567 159.899 33.6584V33.5824C159.899 33.4841 159.979 33.4044 160.077 33.4044C160.371 33.3919 160.643 33.3449 160.892 33.2635C161.142 33.1821 161.317 33.107 161.417 33.0381C161.479 32.9953 161.537 32.9525 161.589 32.9096C161.65 32.8595 161.712 32.8034 161.792 32.8034C161.9 32.8034 161.951 32.9234 161.951 33.0317V35.6678L161.96 38.3437C161.96 38.4344 161.989 38.536 162.073 38.5697C162.104 38.5823 162.179 38.5948 162.298 38.6073C162.416 38.6198 162.61 38.6261 162.878 38.6261H162.906C163.025 38.6261 163.122 38.7228 163.122 38.8421V38.9619C163.122 39.015 163.079 39.0581 163.026 39.0581C163.021 39.0581 163.017 39.0578 163.012 39.0572C162.872 39.039 162.378 39.0299 161.529 39.0299C160.695 39.0299 160.207 39.039 160.066 39.0571C160.061 39.0578 160.056 39.0581 160.051 39.0581C159.993 39.0581 159.946 39.0111 159.946 38.9532V38.8421C159.946 38.7228 160.043 38.6261 160.162 38.6261H160.19C160.327 38.6261 160.446 38.6261 160.546 38.6261C160.646 38.6261 160.724 38.623 160.78 38.6167C160.836 38.6104 160.886 38.6011 160.93 38.5885C160.974 38.576 160.999 38.5697 161.005 38.5697C161.011 38.5697 161.03 38.5541 161.061 38.5228C161.079 38.5044 161.117 38.4407 161.117 38.4147V33.7603Z" fill="#13B1E3"/>
<path d="M158.486 3.96654C158.318 3.96654 158.234 3.93112 158.234 3.86027C158.234 3.816 158.305 3.56804 158.446 3.11639C158.588 2.66475 158.738 2.21753 158.897 1.77475L159.122 1.12385C159.189 0.883266 159.435 0.778476 159.684 0.778476H165.496H166.688C166.971 0.778476 167.139 0.782904 167.192 0.791759C167.245 0.800615 167.275 0.840466 167.284 0.911312C167.284 0.964446 167.209 1.46922 167.059 2.42564C166.975 2.96298 166.911 3.35078 166.869 3.58902C166.837 3.76505 166.734 3.96654 166.556 3.96654C166.476 3.96654 166.423 3.96654 166.397 3.96654C166.37 3.96654 166.344 3.9444 166.317 3.90013C166.3 3.87414 166.291 3.84368 166.294 3.8126C166.302 3.72399 166.327 3.54062 166.37 3.26251C166.423 2.91714 166.45 2.64704 166.45 2.45221C166.45 2.14226 166.392 1.90758 166.277 1.74818C166.162 1.58878 165.92 1.47808 165.549 1.41609C165.504 1.40723 165.248 1.39838 164.78 1.38952C164.374 1.38952 164.118 1.39395 164.012 1.40281C163.906 1.41166 163.826 1.44708 163.773 1.50907C163.764 1.51793 163.451 2.75331 162.832 5.2152C162.214 7.6771 161.905 8.93019 161.905 8.97447C161.905 9.08074 162.293 9.14273 163.071 9.16044C163.353 9.16044 163.534 9.16487 163.614 9.17372C163.693 9.18258 163.733 9.22243 163.733 9.29327C163.733 9.33755 163.72 9.39954 163.693 9.47924C163.658 9.63865 163.618 9.73163 163.574 9.7582C163.557 9.76694 163.538 9.77148 163.518 9.77148C163.499 9.77148 163.478 9.77148 163.455 9.77148C163.411 9.77148 163.181 9.76706 162.766 9.7582C162.351 9.74935 161.755 9.74492 160.977 9.74492C159.838 9.74492 159.113 9.75377 158.804 9.77148H158.752C158.658 9.77148 158.526 9.74555 158.526 9.65193C158.526 9.6287 158.533 9.56485 158.546 9.46037C158.55 9.42872 158.56 9.38783 158.571 9.35786C158.623 9.21367 158.771 9.16044 158.925 9.16044H159.056H159.202C159.895 9.16044 160.312 9.12211 160.452 9.04545C160.458 9.04248 160.463 9.03752 160.469 9.03397C160.48 9.02611 160.494 9.02421 160.504 9.01469C160.542 8.97786 160.581 8.89361 160.619 8.76193C160.664 8.61138 160.84 7.91621 161.149 6.6764C161.3 6.07421 161.423 5.58272 161.52 5.20192C162.139 2.76659 162.448 1.52236 162.448 1.46922C162.448 1.42494 162.32 1.40281 162.064 1.40281H161.653C161.061 1.40281 160.672 1.42937 160.487 1.48251C160.089 1.57106 159.78 1.75261 159.559 2.02714C159.339 2.30166 159.1 2.8153 158.844 3.56804C158.782 3.76286 158.738 3.87799 158.711 3.91341C158.685 3.94883 158.623 3.96654 158.526 3.96654H158.486Z" fill="#13B1E3"/>
<path d="M166.716 7.73471C166.547 7.73471 166.413 7.67836 166.313 7.56566C166.213 7.45297 166.163 7.31522 166.163 7.15244C166.163 6.70791 166.329 6.32285 166.66 5.99728C166.991 5.67171 167.403 5.50892 167.896 5.50892C168.464 5.50892 168.939 5.68423 169.32 6.03485C169.701 6.38546 169.895 6.83939 169.901 7.39662C169.901 7.66584 169.838 7.92254 169.714 8.16672C169.589 8.4109 169.439 8.62377 169.264 8.80534C169.089 8.98691 168.839 9.21857 168.514 9.50032C168.29 9.69441 167.977 9.98241 167.578 10.3643L167.541 10.3994C167.352 10.5787 167.477 10.8962 167.737 10.8997C168.235 10.8997 168.615 10.8956 168.876 10.8875C169.161 10.8787 169.372 10.7286 169.435 10.4511C169.462 10.3332 169.493 10.1892 169.526 10.0193C169.526 10.0177 169.526 10.016 169.526 10.0144C169.526 10.0002 169.538 9.98868 169.552 9.98868H169.877C169.89 9.98868 169.901 9.99953 169.901 10.0129C169.901 10.0155 169.901 10.018 169.9 10.0205C169.891 10.0594 169.851 10.343 169.779 10.8715C169.708 11.3936 169.662 11.6796 169.642 11.7294C169.64 11.7336 169.639 11.738 169.639 11.7425C169.639 11.7542 169.629 11.7637 169.617 11.7637H166.342C166.243 11.7637 166.163 11.6838 166.163 11.5852V11.4725C166.163 11.4287 166.182 11.3818 166.219 11.3317C166.257 11.2816 166.35 11.172 166.5 11.003C166.681 10.8026 166.838 10.6273 166.969 10.477C167.025 10.4144 167.131 10.2986 167.287 10.1295C167.443 9.9605 167.55 9.84467 167.606 9.78206C167.662 9.71945 167.753 9.61615 167.877 9.47214C168.002 9.32814 168.09 9.2217 168.14 9.15283C168.19 9.08396 168.262 8.99004 168.355 8.87108C168.449 8.75213 168.514 8.65195 168.552 8.57056C168.589 8.48916 168.636 8.39838 168.692 8.2982C168.749 8.19803 168.789 8.09785 168.814 7.99767C168.839 7.8975 168.861 7.80358 168.88 7.71593C168.899 7.62827 168.908 7.52497 168.908 7.40601C168.908 7.01156 168.802 6.67034 168.589 6.38233C168.377 6.09433 168.074 5.95032 167.681 5.95032C167.475 5.95032 167.293 6.00354 167.137 6.10998C166.981 6.21642 166.872 6.31972 166.809 6.4199C166.747 6.52008 166.716 6.57955 166.716 6.59834C166.716 6.6046 166.731 6.60773 166.763 6.60773C166.875 6.60773 166.991 6.65156 167.109 6.73921C167.228 6.82686 167.287 6.97087 167.287 7.17122C167.287 7.32775 167.237 7.45923 167.137 7.56566C167.037 7.6721 166.897 7.72845 166.716 7.73471Z" fill="#13B1E3"/>
<path d="M89.4557 103.896C89.342 103.896 89.1937 103.872 89.1741 103.76C89.1733 103.755 89.1729 103.75 89.1729 103.746C89.1729 103.717 90.3799 101.211 92.7939 96.2276C94.9788 91.7173 96.1983 89.2246 96.4525 88.7495C96.4825 88.6935 96.5115 88.6309 96.5661 88.5985C96.6584 88.5437 96.8365 88.5163 97.1005 88.5163C97.4291 88.5163 97.629 88.5664 97.7005 88.6666C97.7433 88.7239 98.9718 91.2443 101.386 96.2276C103.583 100.763 104.786 103.246 104.995 103.678C105.017 103.723 105.036 103.758 105.011 103.801C104.974 103.864 104.881 103.896 104.807 103.896H89.4557ZM99.0503 96.5069L96.8635 92.0154C96.6812 91.6409 96.1477 91.6404 95.9648 92.0146L91.4728 101.203C91.3108 101.535 91.5511 101.922 91.92 101.923L96.3935 101.941H101.186C101.462 101.941 101.594 101.738 101.475 101.489C101.118 100.744 100.31 99.0839 99.0503 96.5069Z" fill="#13B1E3"/>
<path d="M112.635 103.381C113.477 103.381 114.249 103.009 114.949 102.264C115.648 101.519 116.006 100.653 116.02 99.665C116.02 99.3556 115.976 99.079 115.889 98.8352C115.558 97.9141 114.427 97.6778 113.482 97.4261C112.763 97.2347 112.266 97.0931 111.992 97.0015C111.563 96.8583 111.263 96.7151 111.092 96.5719C110.235 95.9704 109.806 95.1041 109.806 93.9728C109.806 93.0993 110.035 92.3045 110.492 91.5885C110.949 90.8725 111.413 90.3355 111.885 89.9775C112.299 89.6195 112.799 89.3331 113.384 89.1183C113.97 88.9035 114.427 88.789 114.756 88.7746H114.991H115.141C116.346 88.7746 117.259 89.1284 117.879 89.8358C118.042 90.0216 118.231 90.0519 118.398 89.8701C118.57 89.684 118.755 89.4763 118.955 89.2472C119.114 89.0648 119.237 88.9278 119.324 88.8361C119.362 88.7963 119.415 88.7746 119.469 88.7746C119.542 88.7746 119.615 88.7495 119.687 88.7606C119.799 88.7779 119.855 88.8255 119.855 88.9035C119.855 89.0038 119.655 89.8701 119.255 91.5026C118.855 93.1351 118.627 93.98 118.57 94.0372C118.512 94.0945 118.398 94.116 118.227 94.1017C117.941 94.1017 117.798 94.0372 117.798 93.9084C117.798 93.7646 117.821 93.621 117.83 93.4775C117.833 93.4231 117.836 93.3591 117.841 93.2854C117.855 93.0563 117.87 92.8702 117.884 92.727C117.884 92.2401 117.82 91.8176 117.691 91.4596C117.563 91.1016 117.434 90.8367 117.305 90.6649C117.002 90.2596 116.559 89.9711 116.074 89.8255C115.744 89.7264 115.39 89.6768 115.013 89.6768C114.199 89.6768 113.442 90.0062 112.742 90.6649C112.042 91.3236 111.685 92.0826 111.67 92.9418C111.67 93.3714 111.777 93.7437 111.992 94.0587C112.206 94.3738 112.499 94.5957 112.87 94.7246C112.927 94.7532 113.427 94.8893 114.37 95.1327C115.316 95.3771 116.349 95.6364 117.028 96.3399C117.092 96.4064 117.156 96.4766 117.22 96.5504C117.677 97.0802 117.905 97.7962 117.905 98.6984C117.905 99.0707 117.848 99.4717 117.734 99.9013C117.663 100.216 117.534 100.567 117.348 100.954C117.163 101.34 116.905 101.763 116.577 102.221C116.248 102.679 115.777 103.109 115.163 103.51C114.549 103.911 113.877 104.183 113.149 104.326C112.977 104.355 112.735 104.369 112.42 104.369C111.006 104.369 109.906 103.975 109.121 103.188C109.006 103.061 108.807 103.062 108.693 103.188L108.306 103.617C107.978 104.004 107.778 104.226 107.706 104.283C107.635 104.341 107.542 104.369 107.428 104.369C107.242 104.369 107.149 104.312 107.149 104.197C107.149 104.154 107.564 102.472 108.392 99.1495C108.421 99.0636 108.564 99.0206 108.821 99.0206H108.824C109 99.0206 109.228 99.0804 109.228 99.2569C109.228 99.2855 109.221 99.35 109.206 99.4502C109.192 99.5505 109.163 99.7008 109.121 99.9013C109.078 100.102 109.063 100.338 109.078 100.61C109.106 101.169 109.235 101.641 109.463 102.028C109.692 102.414 109.999 102.701 110.385 102.887C110.77 103.073 111.142 103.202 111.499 103.274C111.856 103.345 112.235 103.381 112.635 103.381Z" fill="#13B1E3"/>
<path d="M126.321 93.0527C126.321 92.6877 126.811 92.6231 127.176 92.6231H139.704C140.075 92.6231 140.591 92.6814 140.591 93.0527C140.591 93.4013 140.108 93.4614 139.759 93.4625L133.478 93.4823H127.259C126.865 93.4823 126.321 93.4473 126.321 93.0527ZM126.321 97.2198C126.321 96.8252 126.865 96.7902 127.259 96.7902H139.748C140.101 96.7902 140.591 96.8663 140.591 97.2198C140.591 97.5951 140.075 97.6494 139.7 97.6494H127.176C126.811 97.6494 126.321 97.5848 126.321 97.2198Z" fill="#13B1E3"/>
<path d="M219.286 88.753C219.301 88.753 219.815 88.7172 220.829 88.6456C221.379 88.6067 221.785 88.5763 222.045 88.5543C222.275 88.5349 222.65 88.4579 222.65 88.6886C222.65 88.7888 222.129 90.9511 221.086 95.1755C220.043 99.3999 219.508 101.555 219.479 101.641C219.451 101.727 219.443 101.834 219.458 101.963C219.458 102.565 219.658 102.865 220.058 102.865C220.186 102.851 220.329 102.787 220.486 102.672C220.786 102.386 221.079 101.698 221.365 100.61C221.399 100.497 221.43 100.404 221.46 100.334C221.515 100.201 221.649 100.137 221.793 100.137H221.879H221.965C222.179 100.137 222.286 100.195 222.286 100.309C222.286 100.381 222.265 100.495 222.222 100.653C222.036 101.369 221.822 101.949 221.579 102.393C221.336 102.837 221.136 103.123 220.979 103.252C220.935 103.288 220.888 103.323 220.837 103.357C220.55 103.548 220.209 103.639 219.865 103.639C219.379 103.639 218.972 103.531 218.643 103.316C218.315 103.102 218.101 102.88 218.001 102.651L217.896 102.387C217.88 102.348 217.862 102.312 217.824 102.329C217.805 102.337 217.779 102.357 217.765 102.372C217.743 102.393 217.722 102.414 217.701 102.436C216.858 103.238 216.001 103.639 215.13 103.639C214.344 103.639 213.651 103.352 213.051 102.779C212.451 102.207 212.151 101.297 212.151 100.052C212.151 99.3641 212.294 98.6625 212.58 97.9465C212.866 97.2305 213.208 96.6147 213.608 96.0992C214.28 95.2829 214.951 94.7173 215.622 94.4023C216.294 94.0872 216.901 93.9297 217.444 93.9297C218.244 93.9297 218.843 94.2304 219.243 94.8319C219.309 94.9111 219.363 94.8676 219.388 94.7675C219.461 94.4698 219.642 93.7395 219.929 92.5765C220.164 91.627 220.33 90.9602 220.428 90.576C220.493 90.3209 220.621 89.9524 220.379 89.8485C220.279 89.8055 220 89.7697 219.543 89.7411H219.311C219.172 89.7411 218.965 89.7084 218.965 89.5692C218.965 89.5406 218.979 89.4046 219.008 89.1611C219.079 88.889 219.172 88.753 219.286 88.753ZM218.379 98.8682C218.777 97.2655 219.031 94.7245 217.379 94.7245C216.879 94.7245 216.401 94.9464 215.944 95.3903C215.487 95.8343 215.13 96.4142 214.872 97.1302C214.458 98.2615 214.165 99.4357 213.994 100.653C213.994 100.696 213.994 100.775 213.994 100.889C213.994 101.061 213.97 101.234 213.98 101.406C214.011 101.912 214.137 102.269 214.358 102.479C214.615 102.722 214.922 102.851 215.28 102.865C216.051 102.865 216.844 102.35 217.658 101.319C217.771 101.163 217.853 100.986 217.9 100.799L218.379 98.8682Z" fill="#13B1E3"/>
<path d="M223.443 94.0351C223.172 94.0351 223.036 93.9778 223.036 93.8633C223.036 93.7917 223.15 93.3907 223.379 92.6604C223.607 91.9301 223.85 91.2069 224.107 90.4909L224.472 89.4384C224.579 89.0493 224.977 88.8799 225.381 88.8799H234.778H236.706C237.163 88.8799 237.435 88.887 237.52 88.9014C237.606 88.9157 237.656 88.9801 237.67 89.0947C237.67 89.1806 237.549 89.9968 237.306 91.5434C237.17 92.4123 237.067 93.0394 236.998 93.4246C236.947 93.7093 236.781 94.0351 236.492 94.0351C236.363 94.0351 236.278 94.0351 236.235 94.0351C236.192 94.0351 236.149 93.9993 236.106 93.9277C236.078 93.8857 236.063 93.8364 236.068 93.7862C236.082 93.6429 236.123 93.3464 236.192 92.8967C236.278 92.3382 236.32 91.9014 236.32 91.5864C236.32 91.0852 236.228 90.7057 236.042 90.4479C235.856 90.1902 235.463 90.0112 234.863 89.9109C234.792 89.8966 234.378 89.8823 233.621 89.868C232.964 89.868 232.549 89.8751 232.378 89.8894C232.207 89.9038 232.078 89.961 231.992 90.0613C231.978 90.0756 231.471 92.0733 230.471 96.0542C229.471 100.035 228.971 102.061 228.971 102.133C228.971 102.305 229.6 102.405 230.857 102.434C231.314 102.434 231.607 102.441 231.735 102.455C231.864 102.47 231.928 102.534 231.928 102.649C231.928 102.72 231.907 102.82 231.864 102.949C231.807 103.207 231.742 103.357 231.671 103.4C231.643 103.415 231.612 103.422 231.58 103.422C231.549 103.422 231.515 103.422 231.478 103.422C231.407 103.422 231.035 103.415 230.364 103.4C229.693 103.386 228.728 103.379 227.471 103.379C225.629 103.379 224.457 103.393 223.957 103.422H223.873C223.721 103.422 223.508 103.38 223.508 103.229C223.508 103.191 223.518 103.088 223.54 102.919C223.547 102.868 223.562 102.801 223.58 102.753C223.665 102.52 223.904 102.434 224.152 102.434H224.365H224.6C225.721 102.434 226.395 102.372 226.623 102.248C226.632 102.243 226.641 102.235 226.649 102.229C226.667 102.217 226.689 102.214 226.705 102.198C226.768 102.139 226.83 102.002 226.893 101.789C226.964 101.546 227.25 100.422 227.75 98.417C227.993 97.4433 228.193 96.6485 228.35 96.0327C229.35 92.0947 229.85 90.0828 229.85 89.9968C229.85 89.9252 229.643 89.8894 229.228 89.8894H228.564C227.607 89.8894 226.979 89.9324 226.679 90.0183C226.036 90.1615 225.536 90.4551 225.179 90.899C224.822 91.3429 224.436 92.1735 224.022 93.3907C223.922 93.7057 223.85 93.8919 223.807 93.9492C223.765 94.0065 223.665 94.0351 223.508 94.0351H223.443Z" fill="#13B1E3"/>
<path d="M181.786 84.5466C181.786 82.8998 182.265 81.3174 183.222 79.7995C184.179 78.2816 185.386 77.0787 186.843 76.1909C188.3 75.303 189.757 74.8519 191.214 74.8376C192.499 74.8376 193.521 75.2028 194.278 75.9331C194.406 76.0763 194.513 76.198 194.599 76.2983C194.679 76.392 194.734 76.4606 194.764 76.5043C194.768 76.5101 194.772 76.5165 194.774 76.5231C194.785 76.5556 194.814 76.5712 194.842 76.5506C194.927 76.4869 195.103 76.3097 195.37 76.019C195.47 75.9331 195.577 75.8329 195.692 75.7183C195.806 75.6037 195.92 75.4892 196.035 75.3746C196.103 75.3057 196.156 75.2498 196.194 75.2068C196.233 75.163 196.27 75.1176 196.311 75.0763L196.479 74.9072C196.538 74.8489 196.616 74.8161 196.699 74.8161C196.899 74.8161 196.999 74.8663 196.999 74.9665C196.999 75.0238 196.77 76.0047 196.313 77.9093C195.917 79.4413 195.674 80.388 195.583 80.7493C195.555 80.86 195.543 81.0092 195.435 81.0454C195.392 81.0597 195.263 81.074 195.049 81.0883H194.943C194.791 81.0883 194.578 81.0464 194.578 80.895C194.578 80.8807 194.585 80.8306 194.599 80.7446C194.613 80.6587 194.628 80.5155 194.642 80.315C194.656 80.1146 194.663 79.8854 194.663 79.6277C194.663 78.6109 194.435 77.7231 193.978 76.9641C193.521 76.2052 192.742 75.8185 191.642 75.8042C191.271 75.8042 190.871 75.8543 190.442 75.9546C190.014 76.0548 189.5 76.2267 188.9 76.4701C188.3 76.7135 187.707 77.1145 187.121 77.673C186.536 78.2315 186.014 78.8973 185.557 79.6706C185.1 80.4869 184.736 81.4392 184.464 82.5275C184.193 83.6158 184.057 84.5036 184.057 85.191C184.057 86.8235 184.6 87.9977 185.686 88.7137C186.371 89.2006 187.214 89.444 188.214 89.444C189.514 89.444 190.671 88.9572 191.685 87.9834C192.699 87.0096 193.371 85.95 193.699 84.8044C193.756 84.6182 193.799 84.5108 193.828 84.4822C193.856 84.4535 193.97 84.4392 194.17 84.4392C194.456 84.4392 194.599 84.5036 194.599 84.6325C194.599 84.7041 194.592 84.7686 194.578 84.8258C194.163 86.3581 193.278 87.6755 191.921 88.7782C190.564 89.8808 189.107 90.4321 187.55 90.4321C185.936 90.4321 184.572 89.8951 183.457 88.8211C182.343 87.7471 181.786 86.3223 181.786 84.5466Z" fill="#13B1E3"/>
<path d="M196.39 88.851C196.377 88.8225 196.388 88.8069 196.396 88.7768C196.401 88.7546 196.407 88.7291 196.413 88.7003C196.423 88.6497 196.448 88.5383 196.489 88.3662C196.529 88.1941 196.579 88.0372 196.64 87.8954C196.701 87.7537 196.776 87.5867 196.867 87.3943C196.958 87.2019 197.059 87.0501 197.17 86.9387C197.281 86.8273 197.413 86.716 197.564 86.6046C197.716 86.4932 197.882 86.4477 198.064 86.4679C198.743 86.4679 199.203 86.7286 199.444 87.2498C199.484 87.337 199.598 87.3675 199.67 87.3032C200.296 86.7463 200.892 86.4679 201.457 86.4679C202.114 86.4679 202.629 86.7058 203.002 87.1817C203.376 87.6575 203.563 88.2346 203.563 88.9129C203.563 90.0064 203.179 91.0137 202.412 91.935C201.644 92.8563 200.776 93.322 199.806 93.3322C199.584 93.3322 199.387 93.3018 199.215 93.2411C199.104 93.1904 198.988 93.1145 198.867 93.0133C198.746 92.912 198.65 92.826 198.579 92.7551C198.522 92.6894 198.451 92.7039 198.429 92.7883C198.377 92.9867 198.281 93.3755 198.14 93.9548C197.928 94.8255 197.822 95.2659 197.822 95.276C197.822 95.3368 197.862 95.3722 197.943 95.3823C198.024 95.3925 198.21 95.4076 198.503 95.4279H198.716C198.821 95.4279 198.973 95.4594 198.973 95.5646C198.973 95.5848 198.958 95.6759 198.927 95.8379C198.897 95.9594 198.867 96.0353 198.837 96.0657C198.806 96.0961 198.741 96.1163 198.64 96.1265C198.619 96.1265 198.564 96.1265 198.473 96.1265C198.382 96.1265 198.21 96.1214 197.958 96.1113C197.706 96.1012 197.392 96.0961 197.019 96.0961C196.312 96.0961 195.862 96.1062 195.671 96.1265C195.593 96.1265 195.514 96.0991 195.471 96.034C195.453 96.0051 195.443 95.9802 195.443 95.9594C195.451 95.8527 195.466 95.7606 195.488 95.6832C195.541 95.4937 195.746 95.4279 195.943 95.4279C196.287 95.4178 196.484 95.357 196.534 95.2457C196.564 95.1849 196.872 93.9751 197.458 91.6161C198.044 89.2572 198.352 88.0068 198.382 87.8651C198.392 87.8144 198.397 87.7436 198.397 87.6525C198.397 87.2374 198.271 87.0298 198.019 87.0298C197.796 87.0298 197.61 87.1716 197.458 87.455C197.307 87.7385 197.19 88.0473 197.11 88.3814C197.078 88.5117 197.05 88.6189 197.024 88.703C196.977 88.8604 196.85 88.9585 196.686 88.9585H196.594C196.517 88.9585 196.421 88.9215 196.39 88.851ZM199.124 89.9608C198.854 91.0668 198.691 92.762 199.83 92.7852C199.837 92.7854 199.844 92.7855 199.852 92.7855C200.154 92.7855 200.447 92.669 200.73 92.4362C201.013 92.2033 201.245 91.9097 201.427 91.5554C201.609 91.2111 201.79 90.6644 201.972 89.9152C202.154 89.166 202.25 88.6092 202.26 88.2447V88.1536C202.26 87.4044 201.952 87.0298 201.336 87.0298C201.225 87.0298 201.114 87.045 201.003 87.0754C200.892 87.1058 200.781 87.1513 200.67 87.2121C200.558 87.2728 200.457 87.3386 200.367 87.4095C200.276 87.4803 200.19 87.5563 200.109 87.6373C200.028 87.7183 199.953 87.7942 199.882 87.8651C199.811 87.9359 199.756 88.0068 199.715 88.0777C199.681 88.1383 199.646 88.1841 199.612 88.2151C199.6 88.2251 199.589 88.2357 199.58 88.2478C199.56 88.2754 199.546 88.3087 199.539 88.3424C199.531 88.3781 199.52 88.4316 199.503 88.5029C199.473 88.6345 199.417 88.8572 199.336 89.1711C199.256 89.485 199.185 89.7482 199.124 89.9608Z" fill="#13B1E3"/>
<path d="M185.229 107.368C184.958 107.368 184.822 107.311 184.822 107.196C184.822 107.125 184.937 106.724 185.165 105.993C185.394 105.263 185.636 104.54 185.894 103.824L186.258 102.771C186.366 102.382 186.763 102.213 187.167 102.213H196.564H198.492C198.949 102.213 199.221 102.22 199.306 102.234C199.392 102.249 199.442 102.313 199.456 102.428C199.456 102.514 199.335 103.33 199.092 104.876C198.956 105.745 198.853 106.372 198.784 106.758C198.733 107.042 198.567 107.368 198.278 107.368C198.149 107.368 198.064 107.368 198.021 107.368C197.978 107.368 197.935 107.332 197.892 107.261C197.864 107.219 197.85 107.169 197.854 107.119C197.868 106.976 197.909 106.679 197.978 106.23C198.064 105.671 198.106 105.234 198.106 104.919C198.106 104.418 198.014 104.039 197.828 103.781C197.642 103.523 197.249 103.344 196.65 103.244C196.578 103.23 196.164 103.215 195.407 103.201C194.75 103.201 194.335 103.208 194.164 103.222C193.993 103.237 193.864 103.294 193.778 103.394C193.764 103.409 193.257 105.406 192.257 109.387C191.257 113.368 190.757 115.394 190.757 115.466C190.757 115.638 191.386 115.738 192.643 115.767C193.1 115.767 193.393 115.774 193.521 115.788C193.65 115.803 193.714 115.867 193.714 115.982C193.714 116.053 193.693 116.153 193.65 116.282C193.593 116.54 193.528 116.69 193.457 116.733C193.429 116.748 193.398 116.755 193.366 116.755C193.335 116.755 193.301 116.755 193.264 116.755C193.193 116.755 192.821 116.748 192.15 116.733C191.479 116.719 190.514 116.712 189.257 116.712C187.415 116.712 186.244 116.726 185.744 116.755H185.659C185.507 116.755 185.294 116.713 185.294 116.562C185.294 116.524 185.305 116.421 185.326 116.252C185.333 116.201 185.349 116.134 185.366 116.086C185.451 115.853 185.69 115.767 185.938 115.767H186.151H186.386C187.507 115.767 188.181 115.705 188.409 115.581C188.418 115.576 188.427 115.568 188.435 115.562C188.453 115.55 188.475 115.547 188.492 115.531C188.554 115.472 188.617 115.335 188.679 115.122C188.75 114.879 189.036 113.755 189.536 111.75C189.779 110.776 189.979 109.982 190.136 109.366C191.136 105.428 191.636 103.416 191.636 103.33C191.636 103.258 191.429 103.222 191.014 103.222H190.35C189.393 103.222 188.765 103.265 188.465 103.351C187.822 103.495 187.322 103.788 186.965 104.232C186.608 104.676 186.222 105.507 185.808 106.724C185.708 107.039 185.636 107.225 185.594 107.282C185.551 107.339 185.451 107.368 185.294 107.368H185.229Z" fill="#13B1E3"/>
<path d="M181.786 98.4077H204.56" stroke="#13B1E3" stroke-linecap="round"/>
<path d="M142.105 122.026C141.86 122.57 141.572 123.255 142.169 123.255H142.212C142.612 123.255 143.012 122.825 143.412 121.966C143.812 121.107 144.183 119.932 144.526 118.443C144.869 116.954 145.19 115.457 145.49 113.954C145.79 112.45 146.09 110.825 146.39 109.078C146.433 108.777 146.469 108.555 146.497 108.412C147.526 102.326 148.64 96.6837 149.84 91.4856C151.04 86.2874 151.911 82.9079 152.454 81.347C152.54 81.0892 152.611 80.8744 152.668 80.7026C152.725 80.5308 152.847 80.2157 153.032 79.7575C153.218 79.2992 153.411 78.8983 153.611 78.5546C153.811 78.2109 154.054 77.8601 154.339 77.5021C154.625 77.1441 154.939 76.8577 155.282 76.6429C155.625 76.4281 155.989 76.3278 156.375 76.3422C157.175 76.3422 157.775 76.5928 158.175 77.094C158.575 77.5952 158.803 78.168 158.86 78.8124C158.86 79.1704 158.775 79.4568 158.603 79.6716C158.432 79.8864 158.268 80.0224 158.11 80.0797C157.953 80.137 157.796 80.1584 157.639 80.1441C157.339 80.1441 157.068 80.0367 156.825 79.8219C156.582 79.6071 156.461 79.3136 156.461 78.9412C156.461 78.2852 156.805 77.8836 157.495 77.7363C157.541 77.7264 157.563 77.6722 157.535 77.6345C157.533 77.6321 157.531 77.6299 157.529 77.6278C157.486 77.5855 157.43 77.5365 157.361 77.4806C157.289 77.4233 157.232 77.3804 157.189 77.3517C156.975 77.2085 156.739 77.1369 156.482 77.1369C156.282 77.1369 156.096 77.2228 155.925 77.3947C155.754 77.5665 155.525 77.9675 155.239 78.5976C154.954 79.2276 154.675 80.0582 154.404 81.0892C154.132 82.1203 153.797 83.5738 153.397 85.4497C152.997 87.3256 152.597 89.5309 152.197 92.0655C151.354 96.8627 150.476 101.395 149.561 105.662C148.647 109.93 147.933 113.023 147.419 114.942C146.905 116.861 146.512 118.235 146.24 119.066C145.14 122.403 143.783 124.071 142.169 124.071C141.598 124.071 141.077 123.849 140.605 123.405C140.134 122.961 139.87 122.352 139.812 121.579C139.812 121.078 139.948 120.734 140.22 120.548C140.491 120.362 140.762 120.269 141.034 120.269C141.334 120.269 141.605 120.376 141.848 120.591C142.091 120.806 142.212 121.099 142.212 121.472C142.212 121.683 142.177 121.867 142.105 122.026Z" fill="#13B1E3"/>
<path d="M150.309 113.458C150.038 113.458 149.902 113.401 149.902 113.287C149.902 113.215 150.017 112.814 150.245 112.084C150.474 111.353 150.717 110.63 150.974 109.914L151.338 108.862C151.446 108.473 151.843 108.303 152.247 108.303H161.644H163.572C164.029 108.303 164.301 108.31 164.386 108.325C164.472 108.339 164.522 108.403 164.536 108.518C164.536 108.604 164.415 109.42 164.172 110.967C164.036 111.836 163.933 112.463 163.864 112.848C163.814 113.133 163.647 113.458 163.358 113.458C163.229 113.458 163.144 113.458 163.101 113.458C163.058 113.458 163.015 113.423 162.972 113.351C162.944 113.309 162.93 113.26 162.934 113.21C162.948 113.066 162.989 112.77 163.058 112.32C163.144 111.762 163.187 111.325 163.187 111.01C163.187 110.509 163.094 110.129 162.908 109.871C162.722 109.614 162.33 109.435 161.73 109.334C161.658 109.32 161.244 109.306 160.487 109.291C159.83 109.291 159.416 109.298 159.244 109.313C159.073 109.327 158.944 109.384 158.858 109.485C158.844 109.499 158.337 111.497 157.337 115.478C156.337 119.459 155.837 121.485 155.837 121.556C155.837 121.728 156.466 121.828 157.723 121.857C158.18 121.857 158.473 121.864 158.601 121.879C158.73 121.893 158.794 121.957 158.794 122.072C158.794 122.144 158.773 122.244 158.73 122.373C158.673 122.63 158.609 122.781 158.537 122.824C158.509 122.838 158.478 122.845 158.446 122.845C158.415 122.845 158.381 122.845 158.344 122.845C158.273 122.845 157.901 122.838 157.23 122.824C156.559 122.809 155.595 122.802 154.338 122.802C152.495 122.802 151.324 122.817 150.824 122.845H150.739C150.587 122.845 150.374 122.803 150.374 122.652C150.374 122.614 150.385 122.511 150.406 122.342C150.413 122.291 150.429 122.225 150.446 122.176C150.531 121.943 150.77 121.857 151.019 121.857H151.231H151.466C152.587 121.857 153.261 121.795 153.489 121.671C153.498 121.666 153.507 121.658 153.515 121.653C153.533 121.64 153.556 121.637 153.572 121.621C153.634 121.562 153.697 121.426 153.759 121.213C153.83 120.969 154.116 119.845 154.616 117.84C154.859 116.867 155.059 116.072 155.216 115.456C156.216 111.518 156.716 109.506 156.716 109.42C156.716 109.349 156.509 109.313 156.095 109.313H155.43C154.473 109.313 153.845 109.356 153.545 109.442C152.902 109.585 152.402 109.878 152.045 110.322C151.688 110.766 151.302 111.597 150.888 112.814C150.788 113.129 150.717 113.315 150.674 113.373C150.631 113.43 150.531 113.458 150.374 113.458H150.309Z" fill="#13B1E3"/>
<path d="M165.192 117.5C165.192 117.399 165.09 117.329 164.995 117.365C164.854 117.416 164.652 117.466 164.389 117.517C164.127 117.568 163.834 117.603 163.51 117.623C163.352 117.623 163.223 117.494 163.223 117.335V117.213C163.223 117.054 163.352 116.925 163.51 116.925C163.985 116.904 164.424 116.829 164.828 116.697C165.232 116.565 165.515 116.444 165.677 116.332C165.777 116.263 165.87 116.194 165.955 116.125C166.054 116.043 166.154 115.953 166.283 115.953C166.458 115.953 166.54 116.147 166.54 116.322V120.585L166.555 124.912C166.555 125.058 166.601 125.223 166.737 125.277C166.788 125.297 166.909 125.318 167.101 125.338C167.292 125.358 167.606 125.368 168.04 125.368H168.084C168.277 125.368 168.434 125.525 168.434 125.718V125.911C168.434 125.997 168.364 126.067 168.278 126.067C168.271 126.067 168.264 126.066 168.256 126.065C168.029 126.036 167.23 126.021 165.858 126.021C164.509 126.021 163.72 126.036 163.492 126.065C163.484 126.066 163.476 126.067 163.468 126.067C163.374 126.067 163.298 125.991 163.298 125.897V125.718C163.298 125.525 163.455 125.368 163.648 125.368H163.692C163.914 125.368 164.106 125.368 164.268 125.368C164.429 125.368 164.556 125.363 164.647 125.353C164.737 125.343 164.818 125.328 164.889 125.308C164.96 125.287 165 125.277 165.01 125.277C165.02 125.277 165.051 125.252 165.101 125.201C165.131 125.172 165.192 125.069 165.192 125.026V117.5Z" fill="#13B1E3"/>
<path d="M160.937 69.3193C160.666 69.3193 160.53 69.262 160.53 69.1474C160.53 69.0758 160.645 68.6749 160.873 67.9446C161.102 67.2142 161.344 66.4911 161.602 65.7751L161.966 64.7225C162.074 64.3335 162.471 64.1641 162.875 64.1641H172.272H174.2C174.657 64.1641 174.929 64.1712 175.014 64.1855C175.1 64.1999 175.15 64.2643 175.164 64.3789C175.164 64.4648 175.043 65.281 174.8 66.8276C174.664 67.6965 174.561 68.3236 174.492 68.7088C174.441 68.9935 174.275 69.3193 173.986 69.3193C173.857 69.3193 173.772 69.3193 173.729 69.3193C173.686 69.3193 173.643 69.2835 173.6 69.2119C173.572 69.1699 173.558 69.1206 173.562 69.0703C173.576 68.9271 173.617 68.6305 173.686 68.1808C173.772 67.6224 173.814 67.1856 173.814 66.8706C173.814 66.3694 173.722 65.9899 173.536 65.7321C173.35 65.4743 172.957 65.2953 172.358 65.1951C172.286 65.1808 171.872 65.1665 171.115 65.1521C170.458 65.1521 170.043 65.1593 169.872 65.1736C169.701 65.1879 169.572 65.2452 169.486 65.3455C169.472 65.3598 168.965 67.3574 167.965 71.3384C166.965 75.3194 166.465 77.3457 166.465 77.4173C166.465 77.5891 167.094 77.6893 168.351 77.718C168.808 77.718 169.101 77.7251 169.229 77.7395C169.358 77.7538 169.422 77.8182 169.422 77.9328C169.422 78.0044 169.401 78.1046 169.358 78.2335C169.301 78.4913 169.236 78.6416 169.165 78.6846C169.137 78.6987 169.106 78.7061 169.074 78.7061C169.043 78.7061 169.009 78.7061 168.972 78.7061C168.901 78.7061 168.529 78.6989 167.858 78.6846C167.187 78.6703 166.222 78.6631 164.965 78.6631C163.123 78.6631 161.952 78.6774 161.452 78.7061H161.367C161.215 78.7061 161.002 78.6641 161.002 78.5127C161.002 78.4752 161.013 78.3719 161.034 78.203C161.041 78.1518 161.057 78.0857 161.074 78.0372C161.159 77.804 161.398 77.718 161.646 77.718H161.859H162.094C163.215 77.718 163.889 77.656 164.117 77.532C164.126 77.5272 164.135 77.5192 164.143 77.5135C164.161 77.5008 164.183 77.4977 164.2 77.4823C164.262 77.4227 164.325 77.2865 164.387 77.0736C164.458 76.8301 164.744 75.706 165.244 73.7012C165.487 72.7274 165.687 71.9327 165.844 71.3169C166.844 67.3789 167.344 65.3669 167.344 65.281C167.344 65.2094 167.137 65.1736 166.722 65.1736H166.058C165.101 65.1736 164.473 65.2166 164.173 65.3025C163.53 65.4457 163.03 65.7393 162.673 66.1832C162.316 66.6271 161.93 67.4577 161.516 68.6749C161.416 68.9899 161.344 69.1761 161.302 69.2334C161.259 69.2906 161.159 69.3193 161.002 69.3193H160.937Z" fill="#13B1E3"/>
<path d="M174.245 75.4147C173.973 75.4147 173.756 75.3236 173.594 75.1414C173.432 74.9591 173.352 74.7364 173.352 74.4732C173.352 73.7543 173.619 73.1317 174.154 72.6052C174.69 72.0788 175.356 71.8156 176.154 71.8156C177.073 71.8156 177.841 72.099 178.457 72.666C179.073 73.2329 179.386 73.967 179.396 74.868C179.396 75.3034 179.295 75.7185 179.093 76.1133C178.891 76.5081 178.648 76.8524 178.366 77.146C178.083 77.4396 177.679 77.8142 177.154 78.2698C176.79 78.5836 176.285 79.0493 175.639 79.6669L175.579 79.7237C175.275 80.0136 175.476 80.527 175.896 80.5325C176.702 80.5325 177.316 80.526 177.739 80.5129C178.199 80.4987 178.54 80.2559 178.643 79.8073C178.687 79.6165 178.735 79.3838 178.789 79.109C178.79 79.1064 178.79 79.1037 178.79 79.101C178.79 79.0781 178.808 79.0595 178.831 79.0595H179.357C179.378 79.0595 179.396 79.077 179.396 79.0987C179.396 79.1029 179.395 79.1068 179.394 79.1109C179.38 79.1738 179.315 79.6325 179.199 80.487C179.084 81.3313 179.01 81.7938 178.977 81.8743C178.974 81.8811 178.972 81.8881 178.972 81.8955C178.972 81.9144 178.956 81.9297 178.937 81.9297H173.64C173.481 81.9297 173.352 81.8005 173.352 81.6411V81.4589C173.352 81.388 173.382 81.3121 173.442 81.2311C173.503 81.1501 173.655 80.9729 173.897 80.6996C174.19 80.3756 174.442 80.0921 174.654 79.8492C174.745 79.7479 174.917 79.5606 175.169 79.2873C175.422 79.0139 175.594 78.8266 175.684 78.7254C175.775 78.6241 175.922 78.4571 176.124 78.2242C176.326 77.9914 176.467 77.8192 176.548 77.7079C176.629 77.5965 176.745 77.4446 176.896 77.2523C177.048 77.0599 177.154 76.8979 177.214 76.7663C177.275 76.6347 177.351 76.4879 177.442 76.3259C177.532 76.1639 177.598 76.0019 177.639 75.8399C177.679 75.678 177.714 75.5261 177.745 75.3844C177.775 75.2426 177.79 75.0756 177.79 74.8832C177.79 74.2454 177.618 73.6936 177.275 73.2279C176.932 72.7622 176.442 72.5293 175.806 72.5293C175.472 72.5293 175.179 72.6154 174.927 72.7875C174.675 72.9596 174.498 73.1266 174.397 73.2886C174.296 73.4506 174.245 73.5468 174.245 73.5772C174.245 73.5873 174.271 73.5924 174.321 73.5924C174.503 73.5924 174.69 73.6632 174.882 73.805C175.073 73.9467 175.169 74.1796 175.169 74.5035C175.169 74.7566 175.089 74.9693 174.927 75.1414C174.765 75.3135 174.538 75.4046 174.245 75.4147Z" fill="#13B1E3"/>
<path d="M5.22818 50.7646C5.23799 50.7646 5.59108 50.7401 6.28744 50.691C6.66558 50.6644 6.94394 50.6435 7.12252 50.6285C7.28023 50.6152 7.53796 50.5622 7.53796 50.7204C7.53796 50.7891 7.17997 52.2701 6.46399 55.1635C5.748 58.0568 5.38021 59.5329 5.36059 59.5917C5.34097 59.6506 5.33607 59.7242 5.34588 59.8124C5.34588 60.2244 5.48319 60.4303 5.75781 60.4303C5.84608 60.4205 5.94416 60.3764 6.05205 60.2979C6.25802 60.1018 6.45908 59.631 6.65524 58.8856C6.67852 58.808 6.70027 58.7449 6.72048 58.6965C6.75852 58.6053 6.85069 58.5619 6.94948 58.5619H7.00833H7.06718C7.2143 58.5619 7.28786 58.6011 7.28786 58.6796C7.28786 58.7286 7.27314 58.8071 7.24372 58.915C7.11622 59.4054 6.9691 59.8026 6.80236 60.1067C6.63563 60.4107 6.49831 60.6069 6.39043 60.6951C6.36025 60.7198 6.32777 60.7438 6.29299 60.7669C6.0962 60.8979 5.86181 60.96 5.6254 60.96C5.29193 60.96 5.01241 60.8864 4.78682 60.7393C4.56124 60.5922 4.41412 60.4401 4.34546 60.2832L4.27341 60.1031C4.26271 60.0763 4.25037 60.0513 4.22396 60.0628C4.21111 60.0684 4.19335 60.0822 4.18345 60.0921C4.1688 60.1068 4.15415 60.1214 4.1395 60.1361C3.56083 60.6853 2.97235 60.96 2.37406 60.96C1.83462 60.96 1.35894 60.7638 0.947004 60.3715C0.535069 59.9792 0.329102 59.3564 0.329102 58.5031C0.329102 58.0323 0.427181 57.5517 0.623341 57.0613C0.8195 56.5709 1.05489 56.1492 1.32951 55.7961C1.79049 55.237 2.25146 54.8496 2.71244 54.6338C3.17341 54.418 3.59025 54.3102 3.96295 54.3102C4.5122 54.3102 4.92414 54.5161 5.19876 54.9281C5.244 54.9824 5.28088 54.9525 5.29788 54.8839C5.34844 54.6799 5.47233 54.1797 5.66954 53.3833C5.83054 52.7331 5.94462 52.2765 6.01179 52.0133C6.05641 51.8385 6.1443 51.5859 5.97849 51.5149C5.90984 51.4855 5.71858 51.4609 5.40473 51.4413H5.24482C5.14939 51.4413 5.0075 51.4191 5.0075 51.3236C5.0075 51.304 5.01731 51.2108 5.03693 51.0441C5.08597 50.8578 5.14972 50.7646 5.22818 50.7646ZM4.60476 57.6943C4.87817 56.5956 5.05104 54.8545 3.91882 54.8545C3.57554 54.8545 3.24697 55.0065 2.93312 55.3106C2.61926 55.6146 2.37406 56.0118 2.19752 56.5022C1.91309 57.2771 1.71203 58.0813 1.59433 58.915C1.59433 58.9444 1.59433 58.9984 1.59433 59.0768C1.59433 59.1947 1.57759 59.3132 1.58482 59.4309C1.6061 59.7773 1.69264 60.0222 1.84443 60.1655C2.02098 60.3323 2.23185 60.4205 2.47705 60.4303C3.00668 60.4303 3.55102 60.0772 4.11007 59.3711C4.18781 59.2642 4.24418 59.1433 4.27609 59.0151L4.60476 57.6943Z" fill="#13B1E3"/>
<path d="M8.22949 57.1047C8.22949 55.9767 8.55806 54.893 9.21519 53.8533C9.87233 52.8137 10.7011 51.9898 11.7015 51.3817C12.7019 50.7736 13.7023 50.4647 14.7028 50.4549C15.5855 50.4549 16.2867 50.705 16.8066 51.2052C16.8948 51.3033 16.9684 51.3866 17.0272 51.4553C17.0822 51.5194 17.1201 51.5665 17.1408 51.5964C17.1436 51.6004 17.1457 51.6047 17.1472 51.6093C17.1547 51.6315 17.1751 51.6422 17.1938 51.6282C17.252 51.5845 17.3731 51.4631 17.5569 51.264C17.6255 51.2052 17.6991 51.1365 17.7775 51.0581C17.856 50.9796 17.9345 50.9011 18.0129 50.8227C18.0601 50.7755 18.0966 50.7372 18.1225 50.7078C18.1489 50.6777 18.1743 50.6466 18.2026 50.6183L18.3183 50.5026C18.3583 50.4626 18.4125 50.4402 18.469 50.4402C18.6063 50.4402 18.675 50.4745 18.675 50.5431C18.675 50.5824 18.5181 51.2542 18.2042 52.5587C17.9325 53.6078 17.7653 54.2562 17.7027 54.5038C17.6835 54.5796 17.6753 54.6819 17.601 54.7066C17.5716 54.7164 17.4833 54.7262 17.3362 54.736H17.2629C17.1591 54.736 17.0125 54.7074 17.0125 54.6036C17.0125 54.5938 17.0174 54.5595 17.0272 54.5007C17.037 54.4418 17.0469 54.3437 17.0567 54.2064C17.0665 54.0691 17.0714 53.9122 17.0714 53.7356C17.0714 53.0393 16.9144 52.4312 16.6006 51.9113C16.2867 51.3915 15.7522 51.1267 14.997 51.1169C14.8204 51.1169 14.6292 51.1316 14.4232 51.161C14.2173 51.1905 13.9573 51.2542 13.6435 51.3523C13.3296 51.4504 13.0305 51.5877 12.7461 51.7642C12.4616 51.9408 12.1527 52.1762 11.8192 52.4704C11.4857 52.7646 11.2013 53.1128 10.9659 53.5149C10.7305 53.9171 10.5 54.4173 10.2745 55.0156C10.0489 55.6139 9.89685 56.271 9.81838 56.987C9.79877 57.1635 9.78896 57.3548 9.78896 57.5607C9.78896 58.0315 9.85762 58.4484 9.99493 58.8113C10.1322 59.1741 10.3088 59.4537 10.5246 59.6498C10.7403 59.846 10.9855 60.0127 11.2602 60.15C11.5348 60.2874 11.7898 60.3707 12.0252 60.4001C12.2606 60.4296 12.4812 60.4492 12.6872 60.459C13.2168 60.459 13.7023 60.3462 14.1437 60.1206C14.5851 59.895 14.8891 59.6057 15.0558 59.2526C15.0853 59.1741 15.1588 58.9044 15.2765 58.4435C15.3942 57.9825 15.4531 57.7226 15.4531 57.6637C15.4531 57.5853 15.3893 57.5362 15.2618 57.5166C15.1343 57.497 14.8401 57.4823 14.3791 57.4725H13.9838C13.8884 57.4725 13.7465 57.4502 13.7465 57.3548C13.7465 57.3375 13.7541 57.2634 13.7692 57.1323C13.7736 57.0943 13.7811 57.0567 13.794 57.0208C13.7953 57.0172 13.7966 57.0136 13.7979 57.0101C13.8536 56.86 14.013 56.7957 14.1731 56.7957C14.5654 56.8153 15.252 56.8251 16.2328 56.8251C16.6251 56.8251 16.9439 56.8251 17.1891 56.8251C17.4343 56.8251 17.6108 56.8202 17.7187 56.8104C17.8322 56.8001 17.9782 56.7794 18.0641 56.8543C18.0889 56.8759 18.1012 56.9054 18.1012 56.9428C18.1012 56.9625 18.0914 57.0311 18.0718 57.1488C18.0227 57.3352 17.9737 57.4381 17.9247 57.4578C17.8952 57.4676 17.8217 57.4725 17.704 57.4725C17.5721 57.4725 17.4379 57.4791 17.3016 57.4924C17.168 57.5055 17.0137 57.5289 16.9537 57.649C16.9243 57.7079 16.8556 57.958 16.7477 58.3993C16.6594 58.723 16.5859 58.9976 16.527 59.2232C16.2818 60.2236 16.1445 60.7385 16.1151 60.7679C16.0955 60.7876 16.071 60.7974 16.0415 60.7974C15.9435 60.7974 15.8061 60.6993 15.6296 60.5031C15.4697 60.3255 15.3621 60.184 15.3068 60.0788C15.296 60.0582 15.2827 60.0366 15.2618 60.0471C15.2422 60.0569 15.2128 60.0814 15.1735 60.1206C14.4477 60.7974 13.4669 61.1357 12.2311 61.1357C11.0444 61.1357 10.0832 60.7581 9.3476 60.0029C8.612 59.2477 8.2393 58.2816 8.22949 57.1047Z" fill="#13B1E3"/>
<path d="M23.9688 55.7066C23.9688 55.4564 24.305 55.4124 24.5552 55.4124H33.1585C33.4131 55.4124 33.7669 55.4521 33.7669 55.7066C33.7669 55.9456 33.4353 55.9865 33.1963 55.9873L28.8825 56.0009H24.6124C24.3418 56.0009 23.9688 55.9772 23.9688 55.7066ZM23.9688 58.5607C23.9688 58.2902 24.3418 58.2665 24.6124 58.2665H33.1883C33.4306 58.2665 33.7669 58.3184 33.7669 58.5607C33.7669 58.8181 33.4129 58.855 33.1555 58.855H24.5552C24.305 58.855 23.9688 58.811 23.9688 58.5607Z" fill="#13B1E3"/>
<path d="M44.0622 50.7646C44.072 50.7646 44.4251 50.7401 45.1214 50.691C45.4996 50.6644 45.7779 50.6435 45.9565 50.6285C46.1142 50.6152 46.3719 50.5622 46.3719 50.7204C46.3719 50.7891 46.014 52.2701 45.298 55.1635C44.582 58.0568 44.2142 59.5329 44.1946 59.5917C44.175 59.6506 44.1701 59.7242 44.1799 59.8124C44.1799 60.2244 44.3172 60.4303 44.5918 60.4303C44.6801 60.4205 44.7781 60.3764 44.886 60.2979C45.092 60.1018 45.2931 59.631 45.4892 58.8856C45.5125 58.808 45.5343 58.7449 45.5545 58.6965C45.5925 58.6053 45.6847 58.5619 45.7835 58.5619H45.8423H45.9012C46.0483 58.5619 46.1218 58.6011 46.1218 58.6796C46.1218 58.7286 46.1071 58.8071 46.0777 58.915C45.9502 59.4054 45.8031 59.8026 45.6363 60.1067C45.4696 60.4107 45.3323 60.6069 45.2244 60.6951C45.1942 60.7198 45.1618 60.7438 45.127 60.7669C44.9302 60.8979 44.6958 60.96 44.4594 60.96C44.1259 60.96 43.8464 60.8864 43.6208 60.7393C43.3952 60.5922 43.2481 60.4401 43.1794 60.2832L43.1074 60.1031C43.0967 60.0763 43.0844 60.0513 43.0579 60.0628C43.0451 60.0684 43.0273 60.0822 43.0174 60.0921C43.0028 60.1068 42.9881 60.1214 42.9735 60.1361C42.3948 60.6853 41.8063 60.96 41.208 60.96C40.6686 60.96 40.1929 60.7638 39.781 60.3715C39.3691 59.9792 39.1631 59.3564 39.1631 58.5031C39.1631 58.0323 39.2612 57.5517 39.4573 57.0613C39.6535 56.5709 39.8889 56.1492 40.1635 55.7961C40.6245 55.237 41.0854 54.8496 41.5464 54.6338C42.0074 54.418 42.4242 54.3102 42.7969 54.3102C43.3462 54.3102 43.7581 54.5161 44.0327 54.9281C44.078 54.9824 44.1149 54.9525 44.1319 54.8839C44.1824 54.6799 44.3063 54.1797 44.5035 53.3833C44.6645 52.7331 44.7786 52.2765 44.8458 52.0133C44.8904 51.8385 44.9783 51.5859 44.8125 51.5149C44.7438 51.4855 44.5526 51.4609 44.2387 51.4413H44.0788C43.9834 51.4413 43.8415 51.4191 43.8415 51.3236C43.8415 51.304 43.8513 51.2108 43.8709 51.0441C43.92 50.8578 43.9837 50.7646 44.0622 50.7646ZM43.4387 57.6943C43.7122 56.5956 43.885 54.8545 42.7528 54.8545C42.4095 54.8545 42.081 55.0065 41.7671 55.3106C41.4532 55.6146 41.208 56.0118 41.0315 56.5022C40.7471 57.2771 40.546 58.0813 40.4283 58.915C40.4283 58.9444 40.4283 58.9984 40.4283 59.0768C40.4283 59.1947 40.4116 59.3132 40.4188 59.4309C40.4401 59.7773 40.5266 60.0222 40.6784 60.1655C40.855 60.3323 41.0658 60.4205 41.311 60.4303C41.8407 60.4303 42.385 60.0772 42.9441 59.3711C43.0218 59.2642 43.0782 59.1433 43.1101 59.0151L43.4387 57.6943Z" fill="#13B1E3"/>
<path d="M49.6824 51.44C49.349 51.44 49.1724 51.4204 49.1528 51.3812C49.143 51.3615 49.1381 51.3223 49.1381 51.2635C49.1381 51.157 49.1491 51.0656 49.1712 50.9892C49.2176 50.8288 49.383 50.7633 49.55 50.7633C49.9522 50.7829 50.6191 50.7927 51.5509 50.7927C51.8843 50.7927 52.1933 50.7927 52.4777 50.7927C52.7621 50.7927 52.9828 50.7878 53.1397 50.778C53.3352 50.7658 53.6463 50.7117 53.6683 50.9063C53.669 50.9123 53.6694 50.9186 53.6694 50.9251C53.6694 50.9447 53.6596 51.0134 53.64 51.1311C53.5985 51.272 53.557 51.3639 53.5156 51.4067C53.5022 51.4206 53.4827 51.4253 53.4634 51.4253C53.4438 51.4253 53.4193 51.4253 53.3898 51.4253C53.3604 51.4253 53.3261 51.4253 53.2869 51.4253C53.2476 51.4253 53.2035 51.4302 53.1545 51.44C53.0676 51.4574 52.9771 51.441 52.8886 51.4438C52.5819 51.4535 52.3812 51.4669 52.2865 51.4841C52.1786 51.5038 52.0903 51.5577 52.0216 51.646C51.9922 51.6852 51.8353 52.2884 51.5509 53.4555C51.4822 53.7106 51.4086 53.995 51.3302 54.3088C51.2517 54.6227 51.1929 54.8532 51.1536 55.0003C51.1146 55.1468 51.1697 55.2327 51.3213 55.237C51.6337 55.2459 52.2693 55.2504 53.228 55.2504H55.3233C55.346 55.2504 55.3661 55.2359 55.3733 55.2144C55.375 55.209 55.376 55.2038 55.377 55.1982C55.3907 55.1184 55.5424 54.5179 55.832 53.3967C56.1067 52.2688 56.244 51.6656 56.244 51.5871C56.244 51.5087 55.9644 51.4596 55.4054 51.44C55.1798 51.44 55.0327 51.4302 54.964 51.4106C54.8954 51.391 54.861 51.3468 54.861 51.2782C54.861 51.2586 54.8709 51.1997 54.8905 51.1016C54.9297 50.9349 54.9591 50.8417 54.9787 50.8221C54.9984 50.8025 55.0768 50.7878 55.2141 50.778C55.2632 50.778 55.4691 50.7829 55.832 50.7927C56.1949 50.8025 56.6559 50.8074 57.215 50.8074C57.823 50.8074 58.2889 50.8025 58.6126 50.7927C58.9363 50.7829 59.1128 50.778 59.1422 50.778C59.309 50.778 59.3923 50.827 59.3923 50.9251C59.3923 51.1709 59.3416 51.3322 59.2402 51.409C59.2249 51.4206 59.2056 51.4253 59.1864 51.4253C59.1667 51.4253 59.1422 51.4253 59.1128 51.4253C59.0834 51.4253 59.049 51.4253 59.0098 51.4253C58.9706 51.4253 58.9264 51.4302 58.8774 51.44C58.7905 51.4574 58.7001 51.441 58.6115 51.4438C58.3049 51.4535 58.1042 51.4669 58.0094 51.4841C57.9015 51.5038 57.8132 51.5577 57.7446 51.646C57.7152 51.695 57.3621 53.0828 56.6853 55.8095C56.076 58.2645 55.737 59.6302 55.6683 59.9065C55.6597 59.9413 55.6522 59.9913 55.6651 60.0247C55.6841 60.0736 55.7397 60.0707 55.7914 60.0796C55.9161 60.101 56.1552 60.1194 56.5088 60.1348H56.8052C56.9057 60.1348 57.0531 60.1667 57.0531 60.2672C57.0531 60.277 57.0384 60.3653 57.009 60.532C56.9988 60.5652 56.9879 60.596 56.9764 60.6246C56.9234 60.7556 56.7825 60.8115 56.6412 60.8115C56.2783 60.7919 55.6212 60.7821 54.6698 60.7821C54.3363 60.7821 54.0274 60.7821 53.7429 60.7821C53.4585 60.7821 53.2329 60.7821 53.0662 60.7821C52.8605 60.7821 52.5173 60.8764 52.5073 60.671C52.5072 60.6688 52.5071 60.6666 52.5071 60.6644C52.5071 60.6154 52.5218 60.5467 52.5513 60.4584C52.6003 60.2721 52.6493 60.1691 52.6984 60.1495C52.7376 60.1397 52.8112 60.1348 52.9191 60.1348H53.0073C53.2722 60.1348 53.5664 60.1201 53.8901 60.0906C53.9489 60.0808 53.9881 60.0759 54.0077 60.0759C54.0274 60.0759 54.0568 60.0514 54.096 60.0024C54.1353 59.9533 54.1647 59.9092 54.1843 59.87C54.2039 59.8307 54.2333 59.7425 54.2726 59.6051C54.3118 59.4678 54.3461 59.3305 54.3755 59.1932C54.405 59.0559 54.4589 58.845 54.5374 58.5606C54.606 58.286 54.66 58.0653 54.6992 57.8986C55.0229 56.6039 55.1847 55.9517 55.1847 55.9419C55.1847 55.9321 54.4736 55.9272 53.0515 55.9272H52.9628C51.7626 55.9272 50.7177 56.7474 50.4327 57.9133C50.0993 59.2275 49.9325 59.9092 49.9325 59.9582C49.9325 60.0269 49.9718 60.071 50.0502 60.0906C50.1287 60.1103 50.3739 60.125 50.7858 60.1348H51.0822C51.1827 60.1348 51.3302 60.1667 51.3302 60.2672C51.3302 60.277 51.3155 60.3653 51.286 60.532C51.2758 60.5652 51.265 60.596 51.2534 60.6246C51.2004 60.7556 51.0595 60.8115 50.9182 60.8115C50.5553 60.7919 49.8982 60.7821 48.9468 60.7821C48.6134 60.7821 48.3044 60.7821 48.02 60.7821C47.7356 60.7821 47.51 60.7821 47.3432 60.7821C47.1375 60.7821 46.7943 60.8764 46.7843 60.671C46.7842 60.6688 46.7842 60.6666 46.7842 60.6644C46.7842 60.6448 46.7989 60.5761 46.8283 60.4584C46.8774 60.2721 46.9264 60.1691 46.9754 60.1495C47.0147 60.1397 47.0882 60.1348 47.1961 60.1348H47.2844C47.5492 60.1348 47.8434 60.1201 48.1671 60.0906C48.3044 60.0612 48.3976 60.0024 48.4466 59.9141C48.4761 59.8749 48.8291 58.5116 49.5059 55.8242C50.1826 53.1368 50.521 51.7195 50.521 51.5724C50.521 51.5038 50.2415 51.4596 49.6824 51.44Z" fill="#13B1E3"/>
<path d="M63.8965 57.3267V57.1354C63.8965 56.8852 64.2327 56.8412 64.483 56.8412H72.2624C72.5169 56.8412 72.8708 56.8809 72.8708 57.1354C72.8708 57.39 72.5169 57.4297 72.2624 57.4297H64.483C64.2327 57.4297 63.8965 57.3857 63.8965 57.1354V57.3267Z" fill="#13B1E3"/>
<path d="M77.9641 54.3824C77.7777 54.3824 77.6846 54.3432 77.6846 54.2647C77.6846 54.2157 77.763 53.941 77.92 53.4408C78.0769 52.9406 78.2436 52.4453 78.4202 51.9549L78.6703 51.234C78.7443 50.9675 79.017 50.8515 79.2936 50.8515H85.7467H87.0708C87.3847 50.8515 87.571 50.8564 87.6299 50.8662C87.6887 50.8761 87.723 50.9202 87.7328 50.9987C87.7328 51.0575 87.6495 51.6166 87.4827 52.6758C87.3891 53.2705 87.3187 53.6998 87.2715 53.9637C87.2365 54.159 87.1221 54.3824 86.9237 54.3824C86.8354 54.3824 86.7766 54.3824 86.7471 54.3824C86.7177 54.3824 86.6883 54.3579 86.6589 54.3088C86.6397 54.2801 86.6296 54.2463 86.6328 54.2119C86.642 54.1137 86.6703 53.9106 86.7177 53.6027C86.7766 53.2202 86.806 52.921 86.806 52.7052C86.806 52.362 86.7422 52.102 86.6147 51.9255C86.4872 51.749 86.2175 51.6264 85.8056 51.5577C85.7565 51.5479 85.4721 51.5381 84.9523 51.5283C84.5011 51.5283 84.2167 51.5332 84.099 51.543C83.9813 51.5528 83.893 51.592 83.8342 51.6607C83.8244 51.6705 83.4762 53.0387 82.7896 55.7653C82.1031 58.4919 81.7598 59.8798 81.7598 59.9288C81.7598 60.0465 82.1913 60.1152 83.0544 60.1348C83.3683 60.1348 83.5694 60.1397 83.6576 60.1495C83.7459 60.1593 83.79 60.2034 83.79 60.2819C83.79 60.3309 83.7753 60.3996 83.7459 60.4879C83.7067 60.6644 83.6625 60.7674 83.6135 60.7968C83.5941 60.8065 83.5728 60.8115 83.5512 60.8115C83.5299 60.8115 83.5065 60.8115 83.4811 60.8115C83.432 60.8115 83.177 60.8066 82.7161 60.7968C82.2551 60.787 81.593 60.7821 80.7299 60.7821C79.4647 60.7821 78.6605 60.7919 78.3172 60.8115H78.2586C78.1548 60.8115 78.0082 60.7829 78.0082 60.6791C78.0082 60.6534 78.0157 60.5828 78.0307 60.4672C78.0353 60.432 78.046 60.3865 78.0582 60.3532C78.1167 60.1936 78.2803 60.1348 78.4503 60.1348H78.5967H78.7585C79.528 60.1348 79.991 60.0923 80.1473 60.0074C80.1534 60.0041 80.1596 59.9986 80.1652 59.9947C80.1778 59.986 80.193 59.9839 80.204 59.9734C80.2469 59.9326 80.2898 59.8393 80.3327 59.6934C80.3818 59.5267 80.5779 58.7568 80.9212 57.3836C81.0879 56.7167 81.2252 56.1724 81.3331 55.7506C82.0197 53.0534 82.363 51.6754 82.363 51.6166C82.363 51.5675 82.2208 51.543 81.9363 51.543H81.4803C80.8231 51.543 80.3916 51.5724 80.1856 51.6313C79.7442 51.7293 79.401 51.9304 79.1558 52.2345C78.9106 52.5385 78.6458 53.1074 78.3613 53.941C78.2927 54.1568 78.2436 54.2843 78.2142 54.3236C78.1848 54.3628 78.1161 54.3824 78.0082 54.3824H77.9641Z" fill="#13B1E3"/>
<path d="M93.1178 50.7646C93.1276 50.7646 93.4807 50.7401 94.1771 50.691C94.5552 50.6644 94.8336 50.6435 95.0122 50.6285C95.1699 50.6152 95.4276 50.5622 95.4276 50.7204C95.4276 50.7891 95.0696 52.2701 94.3536 55.1635C93.6377 58.0568 93.2699 59.5329 93.2502 59.5917C93.2306 59.6506 93.2257 59.7242 93.2355 59.8124C93.2355 60.2244 93.3728 60.4303 93.6475 60.4303C93.7357 60.4205 93.8338 60.3764 93.9417 60.2979C94.1477 60.1018 94.3487 59.631 94.5449 58.8856C94.5682 58.808 94.5899 58.7449 94.6101 58.6965C94.6482 58.6053 94.7403 58.5619 94.8391 58.5619H94.898H94.9568C95.1039 58.5619 95.1775 58.6011 95.1775 58.6796C95.1775 58.7286 95.1628 58.8071 95.1334 58.915C95.0059 59.4054 94.8587 59.8026 94.692 60.1067C94.5253 60.4107 94.388 60.6069 94.2801 60.6951C94.2499 60.7198 94.2174 60.7438 94.1826 60.7669C93.9859 60.8979 93.7515 60.96 93.5151 60.96C93.1816 60.96 92.9021 60.8864 92.6765 60.7393C92.4509 60.5922 92.3038 60.4401 92.2351 60.2832L92.1631 60.1031C92.1524 60.0763 92.14 60.0513 92.1136 60.0628C92.1008 60.0684 92.083 60.0822 92.0731 60.0921C92.0584 60.1068 92.0438 60.1214 92.0291 60.1361C91.4505 60.6853 90.862 60.96 90.2637 60.96C89.7243 60.96 89.2486 60.7638 88.8367 60.3715C88.4247 59.9792 88.2188 59.3564 88.2188 58.5031C88.2188 58.0323 88.3168 57.5517 88.513 57.0613C88.7091 56.5709 88.9445 56.1492 89.2192 55.7961C89.6801 55.237 90.1411 54.8496 90.6021 54.6338C91.0631 54.418 91.4799 54.3102 91.8526 54.3102C92.4018 54.3102 92.8138 54.5161 93.0884 54.9281C93.1337 54.9824 93.1705 54.9525 93.1875 54.8839C93.2381 54.6799 93.362 54.1797 93.5592 53.3833C93.7202 52.7331 93.8343 52.2765 93.9014 52.0133C93.9461 51.8385 94.0339 51.5859 93.8681 51.5149C93.7995 51.4855 93.6082 51.4609 93.2944 51.4413H93.1345C93.039 51.4413 92.8972 51.4191 92.8972 51.3236C92.8972 51.304 92.907 51.2108 92.9266 51.0441C92.9756 50.8578 93.0394 50.7646 93.1178 50.7646ZM92.4944 57.6943C92.7678 56.5956 92.9407 54.8545 91.8085 54.8545C91.4652 54.8545 91.1366 55.0065 90.8228 55.3106C90.5089 55.6146 90.2637 56.0118 90.0872 56.5022C89.8027 57.2771 89.6017 58.0813 89.484 58.915C89.484 58.9444 89.484 58.9984 89.484 59.0768C89.484 59.1947 89.4672 59.3132 89.4745 59.4309C89.4958 59.7773 89.5823 60.0222 89.7341 60.1655C89.9106 60.3323 90.1215 60.4205 90.3667 60.4303C90.8963 60.4303 91.4407 60.0772 91.9997 59.3711C92.0775 59.2642 92.1338 59.1433 92.1657 59.0151L92.4944 57.6943Z" fill="#13B1E3"/>
<path d="M99.9147 60.459C100.493 60.459 101.023 60.204 101.504 59.694C101.984 59.184 102.229 58.5906 102.239 57.9138C102.239 57.8734 102.238 57.8338 102.236 57.795C102.181 56.8199 100.995 56.5209 100.054 56.2608C99.7926 56.1885 99.599 56.1314 99.4733 56.0895C99.1791 55.9915 98.9731 55.8934 98.8554 55.7953C98.267 55.3834 97.9727 54.79 97.9727 54.0152C97.9727 53.4169 98.1296 52.8725 98.4435 52.3821C98.7574 51.8917 99.0761 51.5239 99.3998 51.2787C99.6842 51.0335 100.027 50.8374 100.43 50.6903C100.832 50.5431 101.146 50.4647 101.371 50.4549H101.533H101.636C102.463 50.4549 103.09 50.6971 103.516 51.1816C103.628 51.3089 103.757 51.3297 103.872 51.2052C103.99 51.0777 104.117 50.9355 104.255 50.7785C104.364 50.6536 104.448 50.5598 104.508 50.4971C104.534 50.4697 104.57 50.4549 104.608 50.4549C104.658 50.4549 104.708 50.4377 104.757 50.4452C104.834 50.4571 104.873 50.4897 104.873 50.5431C104.873 50.6118 104.735 51.2052 104.461 52.3233C104.186 53.4414 104.029 54.0201 103.99 54.0593C103.951 54.0985 103.872 54.1132 103.755 54.1034C103.558 54.1034 103.46 54.0593 103.46 53.971C103.46 53.8726 103.476 53.7742 103.482 53.6759C103.484 53.6386 103.487 53.5948 103.49 53.5444C103.5 53.3874 103.509 53.2599 103.519 53.1619C103.519 52.8284 103.475 52.5391 103.387 52.2939C103.298 52.0487 103.21 51.8672 103.122 51.7495C102.914 51.4718 102.609 51.2744 102.277 51.1748C102.05 51.1068 101.807 51.0728 101.548 51.0728C100.989 51.0728 100.469 51.2983 99.9883 51.7495C99.5077 52.2007 99.2625 52.7205 99.2527 53.309C99.2527 53.6032 99.3262 53.8582 99.4733 54.074C99.6205 54.2898 99.8215 54.4418 100.077 54.5301C100.116 54.5497 100.459 54.6429 101.106 54.8096C101.756 54.977 102.465 55.1544 102.932 55.6369C102.976 55.6823 103.019 55.7302 103.063 55.7806C103.377 56.1435 103.534 56.6339 103.534 57.2518C103.534 57.5068 103.495 57.7814 103.416 58.0757C103.367 58.2914 103.279 58.5317 103.151 58.7965C103.024 59.0614 102.847 59.3507 102.622 59.6645C102.396 59.9784 102.072 60.2726 101.651 60.5473C101.229 60.8219 100.768 61.0082 100.268 61.1063C100.15 61.1259 99.9834 61.1357 99.7676 61.1357C98.7966 61.1357 98.0414 60.866 97.5019 60.3266C97.4231 60.2399 97.2867 60.2401 97.2082 60.3271L96.9429 60.6208C96.7173 60.8856 96.58 61.0377 96.5309 61.0769C96.4819 61.1161 96.4182 61.1357 96.3397 61.1357C96.2122 61.1357 96.1484 61.0965 96.1484 61.018C96.1484 60.9886 96.4329 59.8362 97.0017 57.5607C97.0213 57.5019 97.1194 57.4725 97.296 57.4725H97.2983C97.4193 57.4725 97.5755 57.5133 97.5755 57.6343C97.5755 57.6539 97.5706 57.698 97.5608 57.7667C97.551 57.8354 97.5314 57.9383 97.5019 58.0757C97.4725 58.213 97.4627 58.3748 97.4725 58.5612C97.4921 58.9437 97.5804 59.2673 97.7373 59.5321C97.8943 59.797 98.1051 59.9931 98.3699 60.1206C98.6348 60.2481 98.8898 60.3364 99.135 60.3854C99.3802 60.4345 99.6401 60.459 99.9147 60.459Z" fill="#13B1E3"/>
</svg>
