	<svg width="75" height="53" viewBox="0 0 75 53" fill="none" xmlns="http://www.w3.org/2000/svg">
						<g clip-path="url(#clip0_721_936)">
						<path d="M56.356 0.0205078V11.7484C54.4009 10.2758 51.9962 9.4101 49.3746 9.4101C42.9313 9.4101 37.7324 14.6692 37.7324 21.138C37.7324 23.7797 38.5915 26.2232 40.0729 28.1731C42.2006 31.0292 45.5729 32.8699 49.3947 32.8699H56.376V28.1771H49.3947C45.5488 28.1771 42.4134 25.0176 42.4134 21.142C42.4134 17.2462 45.5488 14.1069 49.3947 14.1069C53.2607 14.1069 56.376 17.2664 56.376 21.142V28.1771H61.0369V0.0205078H56.356Z" fill="#031115"/>
						<path d="M74.9947 28.1768H65.6729V32.8736H74.9906V28.1768H74.9947Z" fill="#004BFF"/>
						<path d="M12.0914 28.1769V32.8737C8.28965 32.8737 4.89735 31.033 2.76963 28.1769C2.7054 28.0919 2.64117 28.0029 2.57694 27.8937C1.22403 25.9882 0.449219 23.65 0.449219 21.1215V0H5.11012V21.1215C5.09005 25.0173 8.22542 28.1769 12.0914 28.1769Z" fill="#031115"/>
						<path d="M30.731 9.39355V11.7521C28.7759 10.2795 26.3712 9.41378 23.7496 9.41378C17.3063 9.41378 12.1074 14.6729 12.1074 21.1417C12.1074 23.7834 12.9665 26.2269 14.4479 28.1768C16.5756 31.0329 19.9479 32.8736 23.7697 32.8736H30.751V28.1768H23.7737C19.9278 28.1768 16.7924 25.0172 16.7924 21.1417C16.7924 17.2459 19.9278 14.1066 23.7737 14.1066C27.6398 14.1066 30.7551 17.2661 30.7551 21.1417V28.1768H35.416V9.39355H30.731Z" fill="#031115"/>
						<path d="M37.3021 36.1992V40.9972C36.5032 40.3944 35.5197 40.0424 34.4478 40.0424C31.8102 40.0424 29.6865 42.1946 29.6865 44.8404C29.6865 45.9205 30.0398 46.9198 30.646 47.7167C31.5172 48.8859 32.8942 49.6383 34.4598 49.6383H37.3142V47.7167H34.4598C32.8861 47.7167 31.6055 46.4222 31.6055 44.8404C31.6055 43.2465 32.8901 41.964 34.4598 41.964C36.0416 41.964 37.3142 43.2586 37.3142 44.8404V47.7167H39.2211V36.1992H37.3021Z" fill="#031115"/>
						<path d="M7.61475 40.0343V41.0012C6.81585 40.3984 5.83229 40.0465 4.7604 40.0465C2.12283 40.0424 -0.00488281 42.1946 -0.00488281 44.8404C-0.00488281 45.9205 0.348398 46.9197 0.954597 47.7167C1.82576 48.8859 3.20275 49.6383 4.76843 49.6383H7.62278V47.7167H4.76843C3.19472 47.7167 1.91408 46.4222 1.91408 44.8404C1.91408 43.2464 3.19874 41.964 4.76843 41.964C6.35016 41.964 7.62278 43.2586 7.62278 44.8404V47.7167H9.5297V40.0303H7.61475V40.0343Z" fill="#031115"/>
						<path d="M27.3861 40.0342V41.0011C26.5872 40.3983 25.6037 40.0463 24.5318 40.0463C21.8942 40.0463 19.7705 42.1985 19.7705 44.8443C19.7705 45.9244 20.1238 46.9237 20.73 47.7206C21.6011 48.8898 22.9781 49.6422 24.5438 49.6422H27.3982V47.7206H24.5438C22.9701 47.7206 21.6895 46.4261 21.6895 44.8443C21.6895 43.2503 22.9741 41.9679 24.5438 41.9679C26.1256 41.9679 27.3982 43.2625 27.3982 44.8443V47.7206H29.3011V40.0342H27.3861Z" fill="#031115"/>
						<path d="M64.7662 40.9967C63.9673 40.3939 62.9837 40.042 61.9118 40.042C60.3783 40.042 59.0254 40.7702 58.1622 41.9029C57.8812 41.5712 57.552 41.2799 57.1746 41.0008C56.3757 40.398 55.3922 40.046 54.3203 40.046C51.8353 40.046 49.828 41.9555 49.6032 44.3909L49.5791 49.6419H51.5101V44.7064C51.5824 43.1813 52.8028 41.9676 54.3283 41.9676C55.9101 41.9676 57.1827 43.2622 57.1827 44.844V46.1952L57.1666 49.6419H59.0976V44.7064C59.1699 43.1813 60.3903 41.9676 61.9158 41.9676C63.4976 41.9676 64.7702 43.2622 64.7702 44.844V49.6298H66.6771V44.3221C66.5527 42.6635 65.826 41.7856 64.7662 40.9967Z" fill="#031115"/>
						<path d="M17.5629 40.9967C16.764 40.3939 15.7804 40.042 14.7085 40.042C12.071 40.042 9.94727 42.1942 9.94727 44.8399C9.94727 45.9201 10.3005 46.9193 10.9067 47.7163C11.7779 48.8854 13.1549 49.6379 14.7206 49.6379H17.5749L17.5789 47.7203L14.7206 47.7163C13.1469 47.7163 11.8662 46.4217 11.8662 44.8399C11.8662 43.246 13.1509 41.9636 14.7206 41.9636C16.1417 41.9636 17.318 43.0114 17.5388 44.3747C17.6713 44.3747 19.4818 44.3747 19.4818 44.3747C19.2048 42.7646 18.5183 41.7047 17.5629 40.9967Z" fill="#031115"/>
						<path d="M49.045 43.6991C48.7118 42.4612 48.0936 41.5995 47.2826 40.9967C46.4837 40.3939 45.5001 40.042 44.4283 40.042C41.7907 40.042 39.667 42.1942 39.667 44.8399C39.667 45.9201 40.0203 46.9193 40.6265 47.7163C41.4976 48.8854 42.8746 49.6379 44.4403 49.6379H47.2947L47.2987 47.7203L44.4403 47.7163C43.0191 47.7163 41.8389 46.6604 41.6221 45.289H49.1614C49.1815 44.6862 49.1333 44.043 49.045 43.6991ZM44.4363 41.9636C45.6126 41.9636 46.6162 42.6797 47.0578 43.6991H41.8188C42.2524 42.6756 43.264 41.9636 44.4363 41.9636Z" fill="#031115"/>
						<path d="M73.0841 40.2891V46.4989L71.8316 46.511C70.2498 46.507 68.9692 45.2124 68.9812 43.6185V40.3012H67.0703V43.6185C67.0703 44.6582 67.3875 45.6129 67.9415 46.3937C67.9696 46.4382 67.9937 46.4746 68.0218 46.507C68.8929 47.6761 70.286 48.4326 71.8436 48.4326L73.0721 48.4245C72.9557 49.9052 71.7232 51.0703 70.2217 51.0703V52.996C71.7794 52.996 73.1724 52.2435 74.0436 51.0703C74.0717 51.0339 74.0958 50.9975 74.1239 50.953C74.6779 50.1722 74.9951 49.2134 74.9951 48.1778V40.2891H73.0841Z" fill="#031115"/>
						</g>
						<defs>
						<clipPath id="clip0_721_936">
						<rect width="75" height="53" fill="white" transform="translate(-0.00488281)"/>
						</clipPath>
						</defs>
						</svg>