<svg width="188" height="53" viewBox="0 0 188 53" fill="none" xmlns="http://www.w3.org/2000/svg">
						<path fill-rule="evenodd" clip-rule="evenodd" d="M20.9126 0.0865143C19.1904 0.218171 16.1625 0.5933 15.7006 0.732185C15.4609 0.804178 15.4507 1.50824 15.4921 15.1461C15.5353 29.4674 15.5358 29.4858 15.8519 30.6696C17.2405 35.8701 20.5372 39.6857 25.4932 41.8283C30.2649 43.8913 36.1009 43.417 40.6105 40.5996C44.3899 38.2385 47.1117 34.2987 48.0085 29.8914C48.2426 28.7405 48.2643 27.6624 48.2643 17.1594V5.68483L47.6974 5.36369C45.9609 4.38017 42.1212 2.88546 39.0526 1.99844C36.4104 1.23472 35.7301 1.1127 35.5652 1.37318C35.498 1.47918 35.4422 7.73791 35.4409 15.2816C35.4386 30.1523 35.4774 29.3913 34.6672 30.4534C34.214 31.0477 33.1595 31.6264 32.2993 31.7534C30.8184 31.972 29.2155 31.0637 28.5446 29.6261L28.2139 28.9175L28.2125 14.5768C28.2115 4.41517 28.1663 0.208392 28.0572 0.141076C27.8048 -0.0149563 22.7449 -0.0536456 20.9126 0.0865143ZM10.2128 1.98951C7.13228 2.8258 3.15097 4.30633 0.824803 5.48047L0 5.89684L0.0413819 17.9741C0.0824803 29.9576 0.0853147 30.0631 0.408859 31.593C1.49499 36.7287 3.66981 40.7432 7.37037 44.4438C10.9612 48.0348 15.6545 50.7957 21.1252 52.5355C23.0215 53.1385 24.2682 53.1512 26.7102 52.5922C36.2565 50.407 43.1142 45.7948 46.3178 39.4047C46.5522 38.937 46.826 38.2806 46.9262 37.946C47.0834 37.4205 47.0781 37.3074 46.8872 37.1165C46.6283 36.8577 46.1372 36.9639 46.0056 37.3072C45.7658 37.9318 44.5167 39.5865 43.5706 40.5326C40.3557 43.7475 35.853 45.4208 30.9038 45.2399C21.9422 44.9124 15.9249 40.4557 13.6774 32.4809C12.9894 30.0398 13.0016 30.3112 12.9157 15.5251L12.8346 1.56577L12.4095 1.53715C12.1756 1.52142 11.1871 1.72507 10.2128 1.98951ZM134.79 12.9872C133.259 13.2873 131.707 14.5054 131.053 15.9195C130.606 16.8888 130.604 19.4019 131.051 20.3684C132.008 22.4404 134.278 23.5295 136.874 23.1633C137.85 23.0257 139.268 22.433 139.861 21.9146L140.191 21.6263L139.58 20.8432C138.942 20.0273 138.755 19.9273 138.481 20.2571C138.391 20.3655 137.99 20.5951 137.589 20.7674C136.539 21.2193 135.07 21.1377 134.229 20.5807C132.834 19.658 132.541 17.5609 133.607 16.1261C134.449 14.9922 136.395 14.7142 137.934 15.5081L138.751 15.9294L139.384 15.1069C140.112 14.1615 140.101 14.131 138.823 13.4935C137.642 12.9048 136.16 12.7188 134.79 12.9872ZM61.1321 13.3048C61.1719 13.4086 62.0742 15.042 63.1373 16.9342C65.0428 20.3262 65.0669 20.3798 64.8362 20.7317C64.623 21.0571 64.5374 21.0819 63.8675 21.0128L63.1329 20.9369L62.888 21.8704C62.7533 22.3838 62.6969 22.8576 62.7627 22.9234C62.9714 23.1321 64.4326 23.303 64.9709 23.1816C65.6345 23.0319 66.0836 22.7346 66.5242 22.1534C66.8212 21.7617 70.8684 13.4023 70.8684 13.1806C70.8684 13.1391 70.2885 13.1235 69.5796 13.1459L68.291 13.1867L67.3208 15.5047C66.7872 16.7794 66.328 17.8451 66.3006 17.8728C66.2729 17.9004 65.7124 16.8414 65.0551 15.5194L63.86 13.1159H62.4598C61.3513 13.1159 61.0747 13.1552 61.1321 13.3048ZM73.5611 18.076V23.0362H74.6948H75.8286V21.0521V19.068H77.9544H80.0802V21.0521V23.0362H81.2139H82.3477V18.076V13.1159H81.2139H80.0802V15.0291V16.9423H77.9544H75.8286V15.0291V13.1159H74.6948H73.5611V18.076ZM85.6072 18.076V23.0362L86.7764 23.0323L87.9455 23.0285L90.0713 20.1015L92.1971 17.1742L92.2354 20.1051L92.2738 23.0362H93.4754H94.6772V18.0701V13.1039L93.5902 13.1453L92.5032 13.1867L90.2952 16.2331L88.0873 19.2795L88.049 16.1977L88.0109 13.1159H86.809H85.6072V18.076ZM97.9367 18.0658V23.0362H100.745C102.911 23.0362 103.729 22.9842 104.32 22.8087C105.616 22.4239 106.437 21.3296 106.439 19.9838C106.44 19.3659 105.878 18.3414 105.344 17.9864C104.941 17.7192 104.912 17.6598 105.105 17.4996C105.566 17.1167 105.763 16.4963 105.706 15.6032C105.64 14.5588 105.272 13.9643 104.408 13.5023C103.862 13.2102 103.598 13.1833 100.877 13.1411L97.9367 13.0953V18.0658ZM109.132 18.076V23.0362H113.03H116.927V21.9733V20.9104H114.234H111.542V19.9184V18.9263H113.809H116.077V17.9343V16.9423H113.809H111.542V16.0919V15.2416H114.093H116.644V14.1787V13.1159H112.888H109.132V18.076ZM119.761 18.076V23.0362H120.966H122.171V21.6898V20.3435H123.562C125.515 20.3435 126.302 20.0874 127.21 19.1565C128.054 18.2914 128.345 17.4777 128.225 16.319C128.126 15.3571 127.709 14.5381 127.037 13.9839C126.117 13.226 125.542 13.1159 122.5 13.1159H119.761V18.076ZM142.862 18.076V23.0362H144.035H145.208L147.401 20.0357L149.593 17.0354L149.631 20.0357L149.67 23.0362H150.801H151.932V18.076V13.1159H150.885H149.839L147.59 16.2155L145.342 19.3153L145.303 16.2155L145.265 13.1159H144.063H142.862V18.076ZM154.624 14.1787V15.2416H156.325H158.025V19.1389V23.0362H159.159H160.293V19.1389V15.2416H161.994H163.694V14.1787V13.1159H159.159H154.624V14.1787ZM166.387 18.076V23.0362H170.284H174.181V21.9733V20.9104H171.489H168.796V19.9184V18.9263H171.064H173.331V17.9343V16.9423H171.064H168.796V16.0919V15.2416H171.347H173.898V14.1787V13.1159H170.142H166.387V18.076ZM176.591 14.1787V15.2416H178.291H179.992V19.1389V23.0362H181.126H182.259V19.1389V15.2416H183.96H185.661V14.1787V13.1159H181.126H176.591V14.1787ZM103.149 15.3206C103.369 15.4746 103.464 15.6858 103.464 16.0211C103.464 16.7644 103.088 16.9423 101.519 16.9423H100.204V16.0211V15.0999H101.519C102.48 15.0999 102.919 15.1593 103.149 15.3206ZM125.441 15.6559C125.766 15.9804 125.855 16.1972 125.855 16.6573C125.855 17.8739 125.326 18.2177 123.453 18.2177H122.171V16.7297V15.2416H123.599C124.988 15.2416 125.038 15.2528 125.441 15.6559ZM103.824 19.2742C104.203 19.6522 104.242 19.8574 104.041 20.3877C103.854 20.8784 103.216 21.0521 101.6 21.0521H100.204V19.9892V18.9263H101.84C103.389 18.9263 103.495 18.945 103.824 19.2742ZM76.3854 29.6072C71.8314 30.8352 71.2637 37.2024 75.5218 39.2938C76.2545 39.6537 76.4608 39.6877 77.8835 39.6839C79.7502 39.6789 80.3877 39.4458 81.5564 38.3404C82.6572 37.2993 83.1148 36.2227 83.1217 34.6571C83.1278 33.303 82.8672 32.4286 82.1614 31.4344C81.0152 29.8201 78.5217 29.0313 76.3854 29.6072ZM141.267 29.5585C139.791 29.9311 138.471 30.9998 137.8 32.3662C137.444 33.0895 137.405 33.3164 137.405 34.6571C137.405 35.9705 137.449 36.2391 137.781 36.9456C138.259 37.9648 139.129 38.835 140.148 39.3128C140.87 39.6515 141.107 39.6878 142.578 39.6846C144.445 39.6803 145.382 39.4031 146.346 38.5704L146.896 38.0951L146.214 37.298L145.534 36.5009L145.054 36.8663C144.497 37.2915 143.46 37.6335 142.733 37.6323C141.278 37.6301 140.064 36.7251 139.752 35.4102C139.258 33.3268 140.679 31.5393 142.828 31.5393C143.427 31.5393 144.611 31.9216 145.029 32.2499L145.392 32.536L146.055 31.6745C146.826 30.6731 146.839 30.7029 145.291 29.9515C144.523 29.5787 144.198 29.5075 143.094 29.4692C142.382 29.4444 141.559 29.4846 141.267 29.5585ZM161.257 29.6777C158.93 30.4483 157.629 32.4352 157.773 34.9985C157.883 36.9436 158.822 38.3737 160.545 39.2223C161.433 39.6595 161.583 39.6881 162.983 39.6881C164.298 39.6881 164.568 39.644 165.27 39.3147C166.391 38.789 167.159 38.0399 167.696 36.947C168.13 36.0659 168.158 35.9158 168.156 34.5176C168.154 33.2467 168.105 32.929 167.824 32.359C167.306 31.309 166.472 30.4655 165.462 29.9681C164.272 29.3819 162.516 29.2607 161.257 29.6777ZM181.257 29.5992C178.97 30.2448 177.549 32.1551 177.549 34.5862C177.549 36.7123 178.609 38.4279 180.447 39.2764C181.252 39.6481 181.483 39.6881 182.826 39.6881C184.184 39.6881 184.388 39.6518 185.158 39.2736C186.203 38.7607 187.081 37.8758 187.598 36.8136C187.948 36.094 187.993 35.845 187.995 34.5862C187.997 33.3402 187.951 33.0703 187.615 32.3513C187.106 31.2621 186.031 30.2305 184.989 29.8297C183.993 29.4468 182.191 29.3354 181.257 29.5992ZM63.6347 31.0054C63.6231 33.7398 63.4077 36.1607 63.1242 36.7397C62.8072 37.3872 62.3449 37.6482 61.7946 37.4903C61.4042 37.3784 61.3934 37.3916 61.1542 38.2753C61.0204 38.7696 60.9457 39.2648 60.9882 39.3756C61.0738 39.5988 61.7036 39.7594 62.4893 39.7581C64.9195 39.7544 65.8901 37.9115 65.9036 33.2753L65.9083 31.681H67.3255H68.7427V35.6491V39.6173H69.9491H71.1556L71.1183 34.6217L71.081 29.6261L67.3609 29.5882L63.6408 29.5505L63.6347 31.0054ZM84.9931 29.6497C84.9411 29.7016 84.8986 31.9721 84.8986 34.6951V39.6459L87.8495 39.5961L90.8005 39.5464L91.6358 39.1191C94.0128 37.903 93.9675 34.5458 91.5594 33.4763C91.0676 33.2578 90.5081 33.1778 89.1147 33.1268L87.3078 33.0606V32.3708V31.681H89.8587H92.4097V30.6181V29.5552H88.7487C86.735 29.5552 85.045 29.5977 84.9931 29.6497ZM98.3151 29.9396C98.0538 30.4524 94.3937 39.3956 94.3937 39.5215C94.3937 39.5742 94.9537 39.6173 95.6379 39.6173H96.8822L97.2354 38.6607L97.5885 37.7041L99.6583 37.6649L101.728 37.6258L102.083 38.5861L102.437 39.5464L103.73 39.5872C104.441 39.6096 105.02 39.5777 105.018 39.5163C105.015 39.4548 104.102 37.2045 102.988 34.5154L100.963 29.6261L99.7399 29.5853C98.527 29.5447 98.5148 29.5477 98.3151 29.9396ZM105.684 29.6497C105.539 29.7943 105.573 33.0599 105.729 34.0124C106.031 35.8528 107.139 36.8048 109.095 36.9036C110.015 36.9501 110.886 36.8296 111.594 36.5577C111.799 36.4792 111.825 36.647 111.825 38.0432V39.6173H113.03H114.234V34.5806V29.5437L113.065 29.585L111.896 29.6261L111.857 31.9786L111.818 34.3311L111.432 34.5106C110.855 34.7783 109.357 34.8673 108.864 34.6631C108.154 34.3691 107.999 33.8115 107.999 31.5533V29.5552H106.889C106.278 29.5552 105.736 29.5977 105.684 29.6497ZM117.305 29.6497C117.253 29.7016 117.21 31.9656 117.21 34.6808V39.6173H121.108H125.005V38.5544V37.4915H122.312H119.62V36.4994V35.5074H121.887H124.155V34.4445V33.3816H121.887H119.62V32.5313V31.681H122.171H124.722V30.6181V29.5552H121.061C119.047 29.5552 117.357 29.5977 117.305 29.6497ZM127.556 34.5818V39.6416L130.567 39.594C133.54 39.547 133.589 39.5413 134.394 39.1462C136.116 38.3007 136.556 36.2642 135.321 34.8575C135.087 34.5913 134.807 34.3737 134.698 34.3737C134.589 34.3737 134.5 34.3099 134.5 34.2319C134.5 34.154 134.559 34.0902 134.63 34.0902C134.702 34.0902 134.893 33.8754 135.055 33.6129C135.603 32.7267 135.388 31.152 134.623 30.4478C133.877 29.7609 133.332 29.6506 130.355 29.5844L127.556 29.5221V34.5818ZM148.205 29.6442C148.15 29.6992 148.105 31.9656 148.105 34.6808V39.6173H149.31H150.514V37.4915V35.3657L150.975 35.3684C151.407 35.3709 151.529 35.5036 152.924 37.4881L154.412 39.6051L155.864 39.6112C156.663 39.6146 157.316 39.5695 157.315 39.511C157.314 39.4524 156.431 38.2511 155.353 36.841L153.393 34.2773L155.213 31.9853C156.214 30.7245 157.033 29.6621 157.033 29.6241C157.033 29.5863 156.404 29.5552 155.636 29.5552H154.238L152.908 31.2823C152.176 32.2323 151.545 33.0513 151.506 33.1024C151.467 33.1535 151.23 33.2352 150.979 33.2841L150.523 33.3728L150.483 31.4995L150.443 29.6261L149.374 29.5853C148.786 29.5627 148.26 29.5894 148.205 29.6442ZM169.93 34.5862V39.6173H171.064H172.197V35.6491V31.681H174.819H177.441V30.6181V29.5552H173.685H169.93V34.5862ZM79.0552 31.7587C79.3441 31.8793 79.7331 32.1183 79.9197 32.2901C81.022 33.3034 81.0838 35.6381 80.0379 36.7594C78.9473 37.9287 76.8198 37.9287 75.7291 36.7594C74.7263 35.6843 74.7263 33.499 75.7291 32.4083C76.4646 31.6082 77.9847 31.3113 79.0552 31.7587ZM164.416 31.8692C164.824 32.0849 165.186 32.4345 165.462 32.8791C165.828 33.4698 165.883 33.6943 165.883 34.5862C165.883 35.4782 165.828 35.7027 165.462 36.2934C164.855 37.2729 164.057 37.6705 162.828 37.6051C161.05 37.5105 160.092 36.4535 160.085 34.5752C160.081 33.7035 160.136 33.482 160.506 32.8855C161.064 31.9837 161.883 31.5393 162.986 31.5393C163.556 31.5393 163.974 31.6358 164.416 31.8692ZM183.927 31.7587C184.603 32.041 185.051 32.4641 185.405 33.1554C185.816 33.9562 185.732 35.6749 185.248 36.381C184.711 37.1648 184.056 37.5373 183.092 37.6071C181.14 37.7481 179.854 36.5429 179.851 34.5719C179.848 32.3688 181.937 30.9271 183.927 31.7587ZM132.824 31.9155C133.086 32.1525 133.166 32.7545 132.975 33.0415C132.744 33.3863 132.193 33.5233 131.037 33.5233H129.823V32.6022V31.681H131.194C132.27 31.681 132.62 31.7313 132.824 31.9155ZM100.913 35.467C100.913 35.4893 100.371 35.5074 99.7082 35.5074C99.0457 35.5074 98.5036 35.4477 98.5036 35.3749C98.5036 35.3019 98.7682 34.4965 99.0917 33.5851L99.6797 31.928L100.296 33.6773C100.635 34.6394 100.913 35.4448 100.913 35.467ZM90.6191 35.5178C90.8739 35.7181 90.9925 35.9462 90.9925 36.2356C90.9925 37.2165 90.4605 37.4915 88.5622 37.4915H87.3078V36.3577V35.224H88.7767C90.0482 35.224 90.2958 35.2635 90.6191 35.5178ZM133.387 35.7485C133.751 36.112 133.799 36.8363 133.481 37.1543C133.169 37.4658 132.331 37.626 130.993 37.6298L129.823 37.6332V36.4841V35.3351L131.45 35.3868C132.896 35.4326 133.111 35.4728 133.387 35.7485Z" fill="#1465AA"/>
					</svg>